<?xml version="1.0" encoding="UTF-8" standalone="no"?>
<!-- Created with Inkscape (http://www.inkscape.org/) -->

<svg
   xmlns:dc="http://purl.org/dc/elements/1.1/"
   xmlns:cc="http://creativecommons.org/ns#"
   xmlns:rdf="http://www.w3.org/1999/02/22-rdf-syntax-ns#"
   xmlns:svg="http://www.w3.org/2000/svg"
   xmlns="http://www.w3.org/2000/svg"
   xmlns:xlink="http://www.w3.org/1999/xlink"
   xmlns:sodipodi="http://sodipodi.sourceforge.net/DTD/sodipodi-0.dtd"
   xmlns:inkscape="http://www.inkscape.org/namespaces/inkscape"
   width="1000"
   height="180"
   id="svg3886"
   version="1.1"
   inkscape:version="0.48.3.1 r9886"
   sodipodi:docname="New document 6">
  <defs
     id="defs3888">
    <linearGradient
       id="linearGradient16776"
       inkscape:collect="always">
      <stop
         id="stop16778"
         offset="0"
         style="stop-color:#000000;stop-opacity:1;" />
      <stop
         id="stop16780"
         offset="1"
         style="stop-color:#000000;stop-opacity:0;" />
    </linearGradient>
    <marker
       inkscape:stockid="Arrow1Mstart"
       orient="auto"
       refY="0.0"
       refX="0.0"
       id="Arrow1Mstart"
       style="overflow:visible">
      <path
         id="path4470"
         d="M 0.0,0.0 L 5.0,-5.0 L -12.5,0.0 L 5.0,5.0 L 0.0,0.0 z "
         style="fill-rule:evenodd;stroke:#000000;stroke-width:1.0pt"
         transform="scale(0.4) translate(10,0)" />
    </marker>
    <marker
       inkscape:stockid="DotL"
       orient="auto"
       refY="0.0"
       refX="0.0"
       id="DotL"
       style="overflow:visible">
      <path
         id="path4525"
         d="M -2.5,-1.0 C -2.5,1.7600000 -4.7400000,4.0 -7.5,4.0 C -10.260000,4.0 -12.5,1.7600000 -12.5,-1.0 C -12.5,-3.7600000 -10.260000,-6.0 -7.5,-6.0 C -4.7400000,-6.0 -2.5,-3.7600000 -2.5,-1.0 z "
         style="fill-rule:evenodd;stroke:#000000;stroke-width:1.0pt"
         transform="scale(0.8) translate(7.4, 1)" />
    </marker>
    <marker
       inkscape:stockid="Arrow2Lend"
       orient="auto"
       refY="0.0"
       refX="0.0"
       id="Arrow2Lend"
       style="overflow:visible;">
      <path
         id="path4485"
         style="fill-rule:evenodd;stroke-width:0.62500000;stroke-linejoin:round;"
         d="M 8.7185878,4.0337352 L -2.2072895,0.016013256 L 8.7185884,-4.0017078 C 6.9730900,-1.6296469 6.9831476,1.6157441 8.7185878,4.0337352 z "
         transform="scale(1.1) rotate(180) translate(1,0)" />
    </marker>
    <marker
       inkscape:stockid="Arrow1Lstart"
       orient="auto"
       refY="0.0"
       refX="0.0"
       id="Arrow1Lstart"
       style="overflow:visible">
      <path
         id="path4464"
         d="M 0.0,0.0 L 5.0,-5.0 L -12.5,0.0 L 5.0,5.0 L 0.0,0.0 z "
         style="fill-rule:evenodd;stroke:#000000;stroke-width:1.0pt"
         transform="scale(0.8) translate(12.5,0)" />
    </marker>
    <marker
       inkscape:stockid="Arrow1Lend"
       orient="auto"
       refY="0.0"
       refX="0.0"
       id="Arrow1Lend"
       style="overflow:visible;">
      <path
         id="path4467"
         d="M 0.0,0.0 L 5.0,-5.0 L -12.5,0.0 L 5.0,5.0 L 0.0,0.0 z "
         style="fill-rule:evenodd;stroke:#000000;stroke-width:1.0pt;"
         transform="scale(0.8) rotate(180) translate(12.5,0)" />
    </marker>
    <marker
       inkscape:stockid="Tail"
       orient="auto"
       refY="0.0"
       refX="0.0"
       id="Tail"
       style="overflow:visible">
      <g
         id="g4500"
         transform="scale(-1.2)">
        <path
           id="path4502"
           d="M -3.8048674,-3.9585227 L 0.54352094,0"
           style="fill:none;fill-rule:evenodd;stroke:#000000;stroke-width:0.8;stroke-linecap:round" />
        <path
           id="path4504"
           d="M -1.2866832,-3.9585227 L 3.0617053,0"
           style="fill:none;fill-rule:evenodd;stroke:#000000;stroke-width:0.8;stroke-linecap:round" />
        <path
           id="path4506"
           d="M 1.3053582,-3.9585227 L 5.6537466,0"
           style="fill:none;fill-rule:evenodd;stroke:#000000;stroke-width:0.8;stroke-linecap:round" />
        <path
           id="path4508"
           d="M -3.8048674,4.1775838 L 0.54352094,0.21974226"
           style="fill:none;fill-rule:evenodd;stroke:#000000;stroke-width:0.8;stroke-linecap:round" />
        <path
           id="path4510"
           d="M -1.2866832,4.1775838 L 3.0617053,0.21974226"
           style="fill:none;fill-rule:evenodd;stroke:#000000;stroke-width:0.8;stroke-linecap:round" />
        <path
           id="path4512"
           d="M 1.3053582,4.1775838 L 5.6537466,0.21974226"
           style="fill:none;fill-rule:evenodd;stroke:#000000;stroke-width:0.8;stroke-linecap:round" />
      </g>
    </marker>
    <marker
       inkscape:stockid="EmptyDiamondL"
       orient="auto"
       refY="0.0"
       refX="0.0"
       id="EmptyDiamondL"
       style="overflow:visible">
      <path
         id="path4570"
         d="M 0,-7.0710768 L -7.0710894,0 L 0,7.0710589 L 7.0710462,0 L 0,-7.0710768 z "
         style="fill-rule:evenodd;fill:#FFFFFF;stroke:#000000;stroke-width:1.0pt"
         transform="scale(0.8)" />
    </marker>
    <filter
       inkscape:collect="always"
       id="filter11178">
      <feGaussianBlur
         inkscape:collect="always"
         stdDeviation="0.11771721"
         id="feGaussianBlur11180" />
    </filter>
    <linearGradient
       inkscape:collect="always"
       xlink:href="#linearGradient16776"
       id="linearGradient16774"
       x1="415.69287"
       y1="149.20805"
       x2="473.76971"
       y2="149.20805"
       gradientUnits="userSpaceOnUse"
       spreadMethod="pad"
       gradientTransform="matrix(1.0751331,0,0,1.1639086,-36.101937,846.53334)" />
  </defs>
  <sodipodi:namedview
     id="base"
     pagecolor="#ffffff"
     bordercolor="#666666"
     borderopacity="1.0"
     inkscape:pageopacity="0.0"
     inkscape:pageshadow="2"
     inkscape:zoom="3.0482836"
     inkscape:cx="523.65746"
     inkscape:cy="93.870457"
     inkscape:document-units="px"
     inkscape:current-layer="layer1"
     showgrid="false"
     width="1000px"
     inkscape:window-width="1226"
     inkscape:window-height="1000"
     inkscape:window-x="54"
     inkscape:window-y="24"
     inkscape:window-maximized="1" />
  <metadata
     id="metadata3891">
    <rdf:RDF>
      <cc:Work
         rdf:about="">
        <dc:format>image/svg+xml</dc:format>
        <dc:type
           rdf:resource="http://purl.org/dc/dcmitype/StillImage" />
        <dc:title></dc:title>
      </cc:Work>
    </rdf:RDF>
  </metadata>
  <g
     inkscape:label="Layer 1"
     inkscape:groupmode="layer"
     id="layer1"
     transform="translate(0,-872.36218)">
    <flowRoot
       xml:space="preserve"
       id="flowRoot6382"
       style="font-size:36px;font-style:normal;font-variant:normal;font-weight:normal;font-stretch:normal;line-height:125%;letter-spacing:0px;word-spacing:0px;fill:#000000;fill-opacity:1;stroke:none;font-family:Type Keys Filled;-inkscape-font-specification:Type Keys Filled"
       transform="translate(0,872.36218)"><flowRegion
         id="flowRegion6384"><rect
           id="rect6386"
           width="167.42909"
           height="38.42635"
           x="538.88379"
           y="85.763954"
           style="font-style:normal;font-variant:normal;font-weight:normal;font-stretch:normal;font-family:Type Keys Filled;-inkscape-font-specification:Type Keys Filled" /></flowRegion><flowPara
         id="flowPara6388">webcra</flowPara></flowRoot>    <text
       xml:space="preserve"
       style="font-size:36px;font-style:normal;font-variant:normal;font-weight:normal;font-stretch:normal;line-height:125%;letter-spacing:0px;word-spacing:0px;fill:#000000;fill-opacity:1;stroke:none;font-family:Ume Gothic S5;-inkscape-font-specification:Ume Gothic S5"
       x="509.6066"
       y="82.104301"
       id="text6402"
       sodipodi:linespacing="125%"
       transform="translate(0,872.36218)"><tspan
         sodipodi:role="line"
         id="tspan6404"></tspan></text>
    <path
       style="fill:#cfcfcf;fill-opacity:1;stroke:#000000;stroke-width:0.41857275;stroke-miterlimit:4;stroke-opacity:1;stroke-dasharray:none"
       d=""
       id="path13270"
       inkscape:connector-curvature="0"
       transform="translate(0,872.36218)" />
    <g
       id="g17922">
      <g
         transform="translate(97.8957,24.702653)"
         id="g6397">
        <g
           id="g6394"
           transform="translate(0.91491308,0)">
          <path
             transform="translate(-0.91491309,870.53235)"
             d="m 405.99618,60.703886 c 3.01135,-5.135889 9.90655,-6.533055 14.87694,-3.438099 5.43413,3.383717 6.89981,10.793983 3.48401,16.128593 -3.64396,5.690923 -11.46971,7.21389 -17.08987,3.556725 -5.91339,-3.847971 -7.48675,-12.022093 -3.63424,-17.880563 4.01756,-6.109472 12.49274,-7.728037 18.55726,-3.710464 6.28502,4.163652 7.94465,12.904811 3.78353,19.1517 -4.29256,6.444206 -13.2726,8.141515 -19.68362,3.852977 -6.59005,-4.408291 -8.3222,-13.605607 -3.91884,-20.166233 4.51357,-6.724801 13.91051,-8.489407 20.60884,-3.981312 6.85019,4.610298 8.64519,14.192157 4.04068,21.018259 -4.69993,6.967558 -14.45423,8.791146 -21.39966,4.097183 -1.13364,-0.766153 -2.16492,-1.682506 -3.05946,-2.717832"
             sodipodi:t0="0.13827787"
             sodipodi:argument="-17.918184"
             sodipodi:radius="15.580408"
             sodipodi:revolution="3.24"
             sodipodi:expansion="0.20999999"
             sodipodi:cy="66.550781"
             sodipodi:cx="414.45563"
             id="path6390"
             style="fill:none;stroke:#000000;stroke-width:1px;stroke-linecap:butt;stroke-linejoin:miter;stroke-opacity:1"
             sodipodi:type="spiral" />
        </g>
        <path
           sodipodi:type="spiral"
           style="fill:none;stroke:#000000;stroke-width:1px;stroke-linecap:butt;stroke-linejoin:miter;stroke-opacity:1"
           id="path6392"
           sodipodi:cx="411.71088"
           sodipodi:cy="63.806038"
           sodipodi:expansion="0.20999999"
           sodipodi:revolution="3.24"
           sodipodi:radius="43.39814"
           sodipodi:argument="-19.108475"
           sodipodi:t0="0.13827787"
           d="m 387.83845,79.635414 c -10.16729,-13.100961 -6.6477,-32.378703 6.49828,-42.031489 14.3725,-10.553397 35.05321,-6.678183 45.31603,7.67435 10.94831,15.31118 6.79142,37.125675 -8.48072,47.877316 -16.06894,11.312589 -38.83653,6.925649 -50.00241,-9.098204 -11.64427,-16.710384 -7.06279,-40.303344 9.60112,-51.831341 17.26981,-11.947156 41.59312,-7.196739 53.44426,10.027082 12.22549,17.767863 7.3254,42.747936 -10.39774,54.891764 -18.21804,12.482938 -43.79609,7.448198 -56.20803,-10.726674 -12.72253,-18.629687 -7.5652,-44.757593 11.02297,-57.41733 19.00958,-12.946747 45.64714,-7.676715 58.53758,11.292982 13.15756,19.362805 7.7831,46.475907 -11.54138,59.582411 -3.15416,2.139259 -6.59089,3.858429 -10.19383,5.100849"
           transform="translate(0,872.36218)" />
      </g>
      <path
         transform="translate(0,872.36218)"
         inkscape:connector-curvature="0"
         d="m 505.29704,83.594106 c -0.0471,1.516461 0.02,3.022584 0.24441,4.522844 0.2657,1.839201 0.81381,3.621455 1.43183,5.368866 0.33401,0.885562 0.62083,1.786897 0.90052,2.690614 0.031,0.04906 -2.28179,1.511949 -2.31282,1.462886 l 0,0 c -0.27674,-0.900736 -0.56055,-1.799156 -0.89429,-2.680901 -0.62813,-1.760959 -1.18396,-3.558557 -1.45976,-5.41231 -0.23847,-1.510397 -0.31696,-3.027613 -0.26975,-4.556384 -0.0296,-0.05006 2.33025,-1.445675 2.35986,-1.395615 z"
         id="path6416"
         style="fill:#ffffff;fill-opacity:1;stroke:#000000;stroke-width:0.69999999;stroke-miterlimit:4;stroke-opacity:1;stroke-dasharray:none" />
      <path
         transform="translate(0,872.36218)"
         inkscape:connector-curvature="0"
         d="m 507.55132,96.199648 c 0.17278,-1.591049 0.77137,-3.065167 1.45306,-4.496478 0.56606,-1.230875 1.2444,-2.40365 1.90003,-3.587573 -0.027,-0.05138 2.39515,-1.323435 2.42213,-1.272054 l 0,0 c -0.65206,1.182509 -1.34235,2.345475 -1.90647,3.574254 -0.69034,1.403358 -1.31869,2.852843 -1.48582,4.425198 0.0288,0.05055 -2.35415,1.407203 -2.38293,1.356653 z"
         id="path6418"
         style="fill:#ffffff;fill-opacity:1;stroke:#000000;stroke-width:0.69999999;stroke-miterlimit:4;stroke-opacity:1;stroke-dasharray:none" />
      <path
         transform="translate(0,872.36218)"
         inkscape:connector-curvature="0"
         d="m 512.69563,86.250056 c 0.50829,1.379711 1.04736,2.741664 1.63237,4.090742 0.82438,1.703784 1.52798,3.460757 2.24982,5.209125 0.51032,1.281006 0.24821,0.641742 0.7865,1.917722 0.0315,0.04873 -2.26572,1.534327 -2.29723,1.485595 l 0,0 c -0.54136,-1.279497 -0.27888,-0.639648 -0.78781,-1.919398 -0.72276,-1.746198 -1.42202,-3.503335 -2.24836,-5.204452 -0.58826,-1.356051 -1.13204,-2.723974 -1.64928,-4.108366 -0.0312,-0.04909 2.28279,-1.520055 2.31399,-1.470968 z"
         id="path6422"
         style="fill:#ffffff;fill-opacity:1;stroke:#000000;stroke-width:0.69999999;stroke-miterlimit:4;stroke-opacity:1;stroke-dasharray:none" />
      <path
         transform="translate(0,872.36218)"
         inkscape:connector-curvature="0"
         d="m 522.60013,83.581241 c -0.59079,1.395782 -1.00067,2.855122 -1.43901,4.303292 -0.65096,1.986514 -1.40571,3.932398 -1.96814,5.947568 -0.40994,1.484534 -0.19305,0.739335 -0.65167,2.235307 0.028,0.05079 -2.36642,1.371586 -2.39444,1.320792 l 0,0 c 0.46417,-1.487755 0.24615,-0.74521 0.65506,-2.227339 0.54801,-2.021298 1.29627,-3.970013 1.9637,-5.952753 0.43526,-1.448903 0.82783,-2.916902 1.43071,-4.307747 -0.028,-0.05099 2.37581,-1.370112 2.40379,-1.31912 z"
         id="path6424"
         style="fill:#ffffff;fill-opacity:1;stroke:#000000;stroke-width:0.69999999;stroke-miterlimit:4;stroke-opacity:1;stroke-dasharray:none" />
      <g
         transform="translate(3.6596523,-7.3193047)"
         id="g12182">
        <path
           style="fill:#ffffff;fill-opacity:1;stroke:#000000;stroke-width:0.69999999;stroke-miterlimit:4;stroke-opacity:1;stroke-dasharray:none"
           id="path6426"
           d="m 397.49866,969.56077 c 1.23335,1.71014 2.5135,3.38703 3.77877,5.07397 1.69976,2.37518 3.46742,4.69901 5.29661,6.97566 1.75506,2.2229 3.35007,4.56505 5.008,6.85978 1.6641,2.23371 3.18183,4.57328 4.71034,6.90089 1.29473,1.9522 2.36985,4.03503 3.13757,6.24763 0.0312,0.049 -2.27641,1.5189 -2.3076,1.47 l 0,0 c -0.74869,-2.1958 -1.81787,-4.25736 -3.09783,-6.19204 -1.52589,-2.32447 -3.04088,-4.66096 -4.70278,-6.89128 -1.65502,-2.29108 -3.24821,-4.6288 -5.00012,-6.84825 -1.83044,-2.2795 -3.59918,-4.60623 -5.30206,-6.98286 -1.26905,-1.69065 -2.55347,-3.37069 -3.79459,-5.08167 -0.0325,-0.0482 2.24119,-1.58007 2.27369,-1.53183 z"
           inkscape:connector-curvature="0" />
        <g
           id="g6464"
           transform="translate(4.5745653,-8.2342178)">
          <path
             transform="translate(0,872.36218)"
             inkscape:connector-curvature="0"
             d="m 391.21885,103.51134 c 2.01148,1.57119 4.13463,2.98907 6.27701,4.37331 2.88051,1.85244 5.84852,3.55729 8.92056,5.06993 2.49214,1.1279 5.0139,2.20086 7.61235,3.06004 2.63143,0.85236 5.20081,1.87391 7.70756,3.04034 2.2188,1.05246 4.34088,2.28605 6.54461,3.36867 0.0349,0.0463 -2.14794,1.68976 -2.1828,1.64346 l 0,0 c -2.19899,-1.08705 -4.32076,-2.31817 -6.54062,-3.36355 -2.50229,-1.15579 -5.06637,-2.16693 -7.69011,-3.01503 -2.60368,-0.87486 -5.13615,-1.94899 -7.63283,-3.09153 -3.07638,-1.52486 -6.05103,-3.23745 -8.93912,-5.09529 -2.14602,-1.38831 -4.26965,-2.81311 -6.29279,-4.37748 -0.0342,-0.047 2.18196,-1.65988 2.21618,-1.61287 z"
             id="path6428"
             style="fill:#ffffff;fill-opacity:1;stroke:#000000;stroke-width:0.69999999;stroke-miterlimit:4;stroke-opacity:1;stroke-dasharray:none" />
          <path
             transform="translate(0,872.36218)"
             inkscape:connector-curvature="0"
             d="m 410.22537,84.42023 c 0.53978,1.531444 1.19526,3.015485 1.84396,4.503188 0.91423,2.243109 1.91224,4.442269 2.97362,6.619242 1.19692,2.404504 2.50237,4.75148 3.79852,7.10313 1.34365,2.61109 2.78218,5.16839 4.27608,7.69572 1.44378,2.40423 2.91278,4.79263 4.39149,7.17551 1.35999,1.98725 2.52263,4.08567 3.47594,6.29472 0.12747,0.33268 0.25495,0.66535 0.38242,0.99803 0.0313,0.0488 -2.27094,1.52628 -2.30228,1.47745 l 0,0 c -0.12534,-0.32954 -0.25068,-0.65907 -0.37602,-0.9886 -0.94346,-2.19884 -2.09906,-4.28575 -3.45192,-6.26176 -1.47942,-2.38476 -2.94852,-4.7754 -4.39353,-7.18118 -1.4958,-2.52936 -2.93679,-5.08845 -4.28073,-7.70248 -1.29914,-2.35515 -2.60791,-4.705444 -3.80777,-7.113516 -1.06261,-2.180443 -2.0663,-4.38109 -2.98153,-6.627773 -0.65316,-1.494243 -1.31103,-2.98551 -1.86224,-4.520713 -0.0312,-0.04909 2.28278,-1.520055 2.31399,-1.470968 z"
             id="path6430"
             style="fill:#ffffff;fill-opacity:1;stroke:#000000;stroke-width:0.69999999;stroke-miterlimit:4;stroke-opacity:1;stroke-dasharray:none" />
        </g>
      </g>
      <path
         transform="translate(0,872.36218)"
         inkscape:connector-curvature="0"
         d="m 485.35744,5.5702925 c 1.23288,1.1953869 2.45491,2.404195 3.61795,3.6678694 1.45179,1.5598651 2.7614,3.2413921 4.11934,4.8814751 1.34697,1.672198 2.55026,3.448052 3.91217,5.108136 1.2902,1.689823 2.67861,3.300476 4.00549,4.960511 0.2253,0.267408 0.4506,0.534815 0.67589,0.802222 0.033,0.04776 -2.21862,1.601541 -2.25158,1.553778 l 0,0 c -0.22652,-0.269353 -0.45304,-0.538707 -0.67956,-0.808061 -1.32679,-1.658696 -2.71391,-3.268961 -4.00385,-4.957576 -1.36058,-1.660542 -2.5641,-3.435705 -3.91107,-5.107289 -1.35487,-1.636391 -2.66212,-3.313715 -4.11169,-4.869108 -1.15563,-1.2521029 -2.36514,-2.4555078 -3.5988,-3.6306145 -0.034,-0.047214 2.19174,-1.6485575 2.22571,-1.601343 z"
         id="path6444"
         style="fill:#ffffff;fill-opacity:1;stroke:#000000;stroke-width:0.69999999;stroke-miterlimit:4;stroke-opacity:1;stroke-dasharray:none" />
      <path
         transform="translate(0,872.36218)"
         inkscape:connector-curvature="0"
         d="m 500.35241,22.996112 c 1.0347,-1.210329 1.85249,-2.584015 2.6149,-3.976051 0.98451,-1.85699 1.92311,-3.738697 2.84801,-5.62609 0.92616,-1.948705 2.04176,-3.7912831 3.39732,-5.4688829 0.84947,-0.9900759 1.87679,-1.7957101 2.91524,-2.5745092 -0.0248,-0.052506 2.4504,-1.219572 2.47515,-1.1670661 l 0,0 c -1.04484,0.7596674 -2.07597,1.5515352 -2.94544,2.5141526 -1.37777,1.6472764 -2.4992,3.4745756 -3.42678,5.4120556 -0.91977,1.892088 -1.86603,3.772206 -2.84234,5.635598 -0.74625,1.406023 -1.56027,2.795146 -2.58724,4.017344 0.0262,0.05195 -2.42265,1.285396 -2.44882,1.233449 z"
         id="path6448"
         style="fill:#ffffff;fill-opacity:1;stroke:#000000;stroke-width:0.69999999;stroke-miterlimit:4;stroke-opacity:1;stroke-dasharray:none" />
      <path
         transform="translate(0,872.36218)"
         inkscape:connector-curvature="0"
         d="m 501.67846,23.193179 c 0.34935,1.502061 0.63531,3.015492 0.86743,4.539808 0.25796,1.768192 0.40032,3.54995 0.51985,5.33193 0.12225,1.894171 0.18071,3.791487 0.22783,5.688746 0.007,0.354394 0.015,0.708789 0.0225,1.063183 0.0296,0.04989 -2.32205,1.447344 -2.3517,1.397457 l 0,0 c -0.007,-0.35407 -0.0148,-0.708141 -0.0221,-1.062211 -0.0465,-1.893742 -0.10361,-3.787552 -0.22303,-5.678355 -0.11662,-1.775223 -0.25536,-3.550289 -0.5082,-5.312195 -0.22874,-1.524805 -0.50469,-3.041263 -0.87232,-4.539421 -0.0303,-0.04963 2.30948,-1.478577 2.33979,-1.428942 z"
         id="path6450"
         style="fill:#ffffff;fill-opacity:1;stroke:#000000;stroke-width:0.69999999;stroke-miterlimit:4;stroke-opacity:1;stroke-dasharray:none" />
      <path
         inkscape:connector-curvature="0"
         d="m 605.25462,951.31193 c -0.81419,-1.22905 -1.62681,-2.45828 -2.49434,-3.65112 -1.18813,-1.66833 -2.58296,-3.16151 -4.01602,-4.61947 -1.5739,-1.48927 -3.35749,-2.6955 -5.27368,-3.69717 -1.79708,-0.8867 -3.58855,-0.73946 -5.38324,0.0291 -0.27673,0.17385 -1.10383,0.70015 -0.83016,0.52156 0.46838,-0.30565 0.87927,-0.73841 1.41435,-0.90279 0.34047,-0.10459 -0.54136,0.46248 -0.79439,0.71233 -0.82452,0.81418 -1.49133,1.73337 -2.15209,2.67835 -1.34568,1.83143 -2.27027,3.88913 -3.03975,6.01153 -0.72446,2.19151 -1.09507,4.47599 -1.42782,6.75283 -0.30444,2.11369 0.10598,4.19969 0.57107,6.2542 0.50677,2.09188 1.29764,4.09322 2.01449,6.11787 0.78696,2.23982 2.05034,4.27121 3.34266,6.25054 1.36289,2.06509 3.04927,3.81322 5.0895,5.20813 2.02027,1.31598 4.27538,2.09346 6.61718,2.5972 2.15834,0.41846 4.2366,-0.0151 6.26986,-0.73239 1.37768,-0.54394 2.67783,-1.26115 3.92503,-2.05442 0.32433,-0.2063 1.28689,-0.84118 0.96235,-0.63521 -0.43336,0.27504 -0.85924,0.56162 -1.28885,0.84242 1.31058,-0.92433 2.55657,-1.93358 3.79559,-2.9496 -0.0251,-0.0523 2.45141,-1.23186 2.47653,-1.17953 l 0,0 c -1.23668,1.02111 -2.48009,2.03567 -3.78582,2.96913 -2.60578,1.77109 -5.16735,3.69299 -8.14185,4.81973 -2.07376,0.68888 -4.18744,1.07161 -6.366,0.61703 -2.36596,-0.53048 -4.64337,-1.34082 -6.68091,-2.68222 -2.05783,-1.42817 -3.76978,-3.20142 -5.15067,-5.29529 -1.30432,-1.99698 -2.58027,-4.04643 -3.37963,-6.30425 -0.71846,-2.03493 -1.51699,-4.04404 -2.03192,-6.1444 -0.47528,-2.08154 -0.90808,-4.19581 -0.62187,-6.34057 0.32875,-2.29111 0.69603,-4.58895 1.40083,-6.80033 0.75772,-2.14044 1.66008,-4.22615 3.00687,-6.07435 1.78224,-2.62131 3.89695,-4.68404 6.85399,-6.08124 1.87495,-0.70033 3.70751,-0.77838 5.5337,0.15534 1.93275,1.02603 3.73484,2.2543 5.32335,3.76596 1.4418,1.46818 2.84289,2.97385 4.04015,4.65192 0.87255,1.19903 1.68932,2.43491 2.51202,3.66787 0.0324,0.0484 -2.25811,1.56973 -2.29051,1.52133 z"
         id="path6462"
         style="fill:#ffffff;fill-opacity:1;stroke:#000000;stroke-width:0.7013889;stroke-miterlimit:4;stroke-opacity:1;stroke-dasharray:none" />
      <path
         inkscape:connector-curvature="0"
         d="m 456.28449,1022.6661 c 2.05426,-0.1226 4.09238,-0.3267 6.13856,-0.4921 2.24862,-0.2446 4.52278,-0.2252 6.79134,-0.2898 -0.30389,0.4959 3.06585,-0.7262 2.33043,-0.4045 -3.32544,1.4547 -1.92312,0.8956 -1.33246,0.2295 0.46486,-0.8131 -0.0126,-1.5787 -0.76666,-2.2495 -1.01119,-0.7472 -2.46836,-1.0962 -3.95594,-1.3141 -1.76621,-0.2575 -3.44122,-0.037 -5.05162,0.4308 0.5833,-0.2382 1.12253,-0.5246 1.74992,-0.7143 0.26957,-0.083 -0.452,0.2462 -0.65531,0.3834 -0.94488,0.6372 -1.44082,1.418 -1.92193,2.2165 -0.72607,1.2943 -1.15293,2.6335 -1.33548,3.9965 0.0165,1.3274 0.54861,2.6179 1.24759,3.8624 0.68513,1.2229 1.8795,2.2263 3.43561,3.066 1.42419,0.715 3.07926,1.1214 4.84969,1.3523 1.9114,0.1803 3.70572,-0.1785 5.40708,-0.6886 0.77028,-0.2478 3.75,-1.4647 0.10193,-0.01 -0.0271,-0.035 2.6782,-0.8311 2.70529,-0.7955 l 0,0 c -1.64561,0.7108 -3.24175,1.4794 -5.0275,2.0527 -1.75812,0.489 -3.59324,0.8163 -5.53304,0.5968 -1.80484,-0.2546 -3.49264,-0.6908 -4.93982,-1.4276 -1.58278,-0.8669 -2.81167,-1.8955 -3.52063,-3.1457 -0.72005,-1.2663 -1.25916,-2.5783 -1.31281,-3.9289 0.16857,-1.3774 0.57817,-2.7301 1.29587,-4.0409 1.13315,-1.9649 2.50623,-3.0108 5.67831,-4.0239 1.6707,-0.436 3.38957,-0.6168 5.17904,-0.3366 1.545,0.2529 3.04299,0.6317 4.08358,1.4214 0.80841,0.7216 1.3197,1.5346 0.93278,2.4202 -1.00569,1.401 -3.59251,2.1287 -5.94079,2.2434 -2.26465,0.052 -4.52994,0.066 -6.77334,0.3018 -2.0469,0.1676 -4.08792,0.3631 -6.1415,0.4968 -0.0411,-0.03 2.24069,-1.2403 2.2819,-1.2102 z"
         id="path6484"
         style="fill:#0c0c0c;fill-opacity:1;stroke:#000000;stroke-width:0.60389137;stroke-miterlimit:4;stroke-opacity:1;stroke-dasharray:4.83113098,4.83113098;stroke-dashoffset:1.02661533;marker-end:none;marker-start:url(#Tail)" />
      <g
         transform="matrix(1,0,0,0.95374843,2.2872827,41.591212)"
         id="g16718">
        <path
           style="fill:#0c0c0c;fill-opacity:1;stroke:#000000;stroke-width:0.69999999;stroke-miterlimit:4;stroke-opacity:1;stroke-dasharray:none"
           id="path6486"
           d="m 479.71907,135.67354 c 0.17968,1.46818 0.4072,2.92739 0.64421,4.38746 0.31396,2.01986 0.47125,4.05704 0.75336,6.08132 0.33156,2.29487 0.54236,4.60411 0.71278,6.91573 0.16156,2.42485 0.25561,4.85347 0.33701,7.28211 0.0694,2.15406 0.11267,4.30884 0.14581,6.46372 0.0191,1.43992 0.0102,0.72078 0.0269,2.15742 0.0296,0.0499 -2.32333,1.44508 -2.35292,1.39517 l 0,0 c -0.0164,-1.43609 -0.008,-0.71725 -0.0264,-2.1565 -0.0328,-2.15359 -0.0746,-4.30709 -0.14271,-6.45988 -0.0797,-2.42556 -0.17192,-4.85109 -0.33109,-7.27294 -0.16755,-2.30622 -0.37439,-4.6103 -0.7043,-6.89977 -0.28419,-2.02217 -0.44583,-4.05633 -0.75164,-6.0754 -0.23641,-1.45921 -0.4737,-2.91583 -0.64784,-4.38383 -0.0304,-0.0496 2.3064,-1.48418 2.33683,-1.43461 z"
           inkscape:connector-curvature="0"
           transform="translate(0,872.36218)" />
        <path
           style="fill:#0c0c0c;fill-opacity:1;stroke:#000000;stroke-width:0.52655798;stroke-miterlimit:4;stroke-opacity:1;stroke-dasharray:none;marker-start:url(#Tail);marker-mid:url(#Arrow1Lend)"
           id="path6488"
           d="m 479.65131,1028.4254 c 1.40424,-1.2466 2.94218,-2.3314 4.66054,-3.0752 1.38117,-0.6724 2.81799,-1.1322 4.32524,-1.3839 1.56055,-0.3069 3.04655,-0.098 4.49774,0.5169 1.40041,0.6335 2.39528,1.7761 3.23189,3.0425 0.80859,1.2052 0.95352,2.5094 0.7617,3.9177 -0.27224,1.4344 -1.20481,2.4669 -2.2587,3.3862 -1.69486,1.3295 -3.47524,2.5554 -5.36963,3.5727 -1.39113,0.7342 -2.847,1.3254 -4.256,2.0203 -0.93339,0.4476 -0.47702,0.2144 -1.36979,0.6982 -0.0292,-0.033 1.47911,-1.4308 1.50831,-1.3984 l 0,0 c 0.89966,-0.4743 0.44164,-0.2431 1.3745,-0.6923 1.41308,-0.6841 2.86401,-1.2852 4.25043,-2.0268 0.53385,-0.2919 2.59095,-1.6998 0.24383,0.011 -1.72781,1.2591 3.59914,-2.4134 1.77671,-1.2877 1.05227,-0.8741 2.01653,-1.8578 2.32703,-3.253 0.21778,-1.3609 0.10499,-2.6166 -0.68167,-3.7875 -0.81554,-1.2353 -1.78617,-2.3422 -3.16096,-2.9429 -1.43474,-0.5809 -2.89929,-0.7387 -4.42614,-0.4272 -1.49571,0.2701 -2.91839,0.7602 -4.29291,1.4219 -0.58469,0.2656 -2.70429,1.5014 -0.13391,-0.1681 0.30671,-0.1993 -1.11892,0.8297 -0.84867,0.6983 -0.10409,0.088 -0.20818,0.1758 -0.31227,0.2637 0.0187,0.04 -1.82861,0.9338 -1.84727,0.894 z"
           inkscape:connector-curvature="0" />
      </g>
      <text
         sodipodi:linespacing="125%"
         id="text6594"
         y="1038.181"
         x="505.94693"
         style="font-size:36px;font-style:normal;font-variant:normal;font-weight:normal;font-stretch:normal;line-height:125%;letter-spacing:0px;word-spacing:0px;fill:#000000;fill-opacity:1;stroke:none;font-family:Type Keys Filled;-inkscape-font-specification:Type Keys Filled"
         xml:space="preserve"><tspan
           y="1038.181"
           x="505.94693"
           id="tspan6596"
           sodipodi:role="line">craft</tspan></text>
      <path
         transform="translate(0,872.36218)"
         inkscape:connector-curvature="0"
         id="path12808"
         d="m 497.43824,126.02392 c -6.72048,-2.23779 -9.74876,-3.91221 -14.53579,-8.03726 -6.97008,-6.0062 -12.87398,-17.19422 -12.9017,-24.448996 -0.0154,-4.035706 2.14878,-2.43899 2.93478,2.165243 1.03348,6.053863 4.96028,13.276853 9.90767,18.224253 10.9456,10.94559 28.09651,13.89861 41.81209,7.19913 6.05429,-2.95726 13.56012,-10.67271 16.51303,-16.97419 2.17153,-4.634041 2.47303,-6.394579 2.47303,-14.440643 0,-8.512561 -0.21392,-9.598116 -3.01281,-15.288266 -5.84534,-11.883599 -16.33452,-18.311457 -30.03622,-18.406441 -6.57382,-0.04557 -8.11987,0.287387 -13.39651,2.885066 -6.9571,3.424968 -11.81131,8.416991 -15.1867,15.617845 -1.97402,4.211265 -2.41035,6.466454 -2.41094,12.461126 -6.2e-4,6.179758 0.40146,8.138354 2.58257,12.580055 1.42082,2.893408 2.96473,5.260748 3.43092,5.260748 1.24425,0 1.04921,-0.8024 -0.8552,-3.51842 -2.96855,-4.233628 -4.03231,-9.121245 -3.59137,-16.501065 0.65705,-10.996617 6.1726,-19.431087 15.9443,-24.382261 4.76322,-2.413452 6.27887,-2.716276 13.59509,-2.716276 7.01194,0 9.00786,0.362635 13.44602,2.442985 13.24633,6.209095 20.6787,20.492263 18.09049,34.765398 -2.04206,11.261269 -9.10559,20.667009 -19.0054,25.307459 -4.55913,2.13705 -6.35754,2.44299 -14.36093,2.44299 -8.35128,0 -9.66774,-0.24801 -15.09607,-2.84398 -7.52861,-3.60038 -13.16421,-9.2411 -16.81134,-16.82665 -2.61536,-5.439603 -2.85929,-6.727457 -2.85929,-15.09607 0,-8.374006 0.24529,-9.666884 2.89526,-15.260393 3.78357,-7.986286 9.26655,-13.815911 16.20881,-17.233575 17.7529,-8.739727 38.45629,-2.990813 49.16177,13.651236 6.40476,9.956424 7.21006,24.791812 1.95529,36.020982 -4.03343,8.61925 -10.53903,15.21202 -18.76546,19.0169 -5.69482,2.63396 -7.78098,3.10237 -14.85915,3.33639 -6.12123,0.20238 -9.52548,-0.15773 -13.26624,-1.40332 z m 22.96905,-22.77707 c 7.54076,-4.454441 9.88747,-14.894631 5.00599,-22.271038 -2.70111,-4.081656 -8.30035,-7.221078 -12.87897,-7.221078 -4.12102,0 -9.97596,3.028304 -12.37858,6.402483 -5.76449,8.09548 -1.27421,22.453993 7.80401,24.954783 2.99058,0.82382 9.56253,-0.16093 12.44755,-1.86515 z"
         style="fill:#cfcfcf;fill-opacity:1;stroke:#000000;stroke-width:0.91491305999999994;stroke-miterlimit:4;stroke-opacity:1;stroke-dasharray:none" />
      <path
         transform="translate(0,872.36218)"
         inkscape:connector-curvature="0"
         id="path12810"
         d="m 500.64044,121.42477 c -8.78096,-1.60406 -18.13355,-9.16184 -22.99136,-18.5792 -2.30191,-4.462477 -2.52018,-5.75786 -2.51906,-14.94987 10e-4,-9.481449 0.16749,-10.38816 2.87347,-15.662987 5.44585,-10.615724 14.35793,-17.209261 26.46827,-19.58236 15.13709,-2.96621 32.52495,6.151918 39.29611,20.606738 1.17859,2.516011 2.14691,5.295059 2.15183,6.175663 0.0177,3.167488 -1.69864,1.493772 -4.41022,-4.300743 -5.73486,-12.255105 -15.50697,-18.706034 -29.5495,-19.506703 -7.70782,-0.439479 -8.40448,-0.31886 -13.96281,2.417499 -7.40423,3.645089 -12.92093,9.121145 -16.24891,16.129197 -2.1615,4.5517 -2.60696,6.687819 -2.60756,12.504204 -7.3e-4,7.16199 2.01492,13.896672 5.21898,17.437622 2.69714,2.98074 2.98402,0.61575 0.50126,-4.132432 -4.77777,-9.137316 -3.56688,-22.737515 2.74988,-30.885497 1.63106,-2.103914 5.3596,-5.297031 8.28563,-7.095816 5.12664,-3.151616 5.64221,-3.271495 14.18115,-3.297382 7.64442,-0.02318 9.55202,0.296844 13.89312,2.330711 12.58143,5.894583 19.84729,19.63572 17.48225,33.062289 -1.93492,10.984707 -8.52479,20.303867 -17.6627,24.977987 -4.71262,2.41054 -16.35288,3.59272 -23.14983,2.35108 z m 19.15304,-17.50452 c 6.84526,-3.34232 10.36113,-12.035691 7.89262,-19.515358 -2.26623,-6.866756 -11.85747,-12.553521 -18.13577,-10.752929 -8.15707,2.339417 -12.11209,7.242639 -12.11209,15.015922 0,6.583472 1.55906,10.348539 5.84249,14.109445 2.86578,2.51619 4.07559,2.95918 8.08164,2.95918 2.84045,0 6.18846,-0.72124 8.43111,-1.81626 z"
         style="fill:#cfcfcf;fill-opacity:1;stroke:#000000;stroke-width:0.91491306;stroke-miterlimit:4;stroke-opacity:1;stroke-dasharray:none" />
      <path
         transform="translate(0,872.36218)"
         inkscape:connector-curvature="0"
         id="path12812"
         d="m 498.24546,120.09049 c -5.2431,-1.97432 -9.37119,-4.84697 -13.85726,-9.64293 -6.11518,-6.53764 -7.79072,-10.41318 -8.14701,-18.844207 -0.40655,-9.62033 1.3593,-10.281741 2.66215,-0.997124 1.00229,7.142729 3.37645,12.942011 5.96738,14.576331 2.59257,1.63535 2.8384,-0.14643 0.70953,-5.14271 -2.82395,-6.627571 -3.41187,-15.451386 -1.47371,-22.118408 1.77079,-6.091324 6.80098,-12.128216 13.27908,-15.936673 3.82834,-2.25067 4.92837,-2.442315 13.43557,-2.340718 8.24605,0.09848 9.77137,0.385804 13.85917,2.61066 11.95578,6.507155 18.40936,19.467762 15.85404,31.839397 -2.36201,11.435732 -9.03557,20.621972 -17.78706,24.484112 -5.67296,2.50355 -19.58854,3.36243 -24.50188,1.51227 z m 17.51814,-14.44527 c 6.45734,-1.38485 10.56766,-5.16733 12.37643,-11.389299 2.43641,-8.380954 -0.91245,-15.613882 -9.05408,-19.555181 -5.05024,-2.444775 -9.29928,-2.387554 -13.84389,0.186431 -6.83239,3.869738 -9.74902,11.308801 -7.67038,19.563823 1.19593,4.749474 6.54317,10.870236 10.08611,11.545146 1.17248,0.22335 2.4203,0.46216 2.77293,0.53068 0.35263,0.0685 2.75243,-0.32819 5.33288,-0.8816 z"
         style="fill:#cfcfcf;fill-opacity:1;stroke:#000000;stroke-width:0.915;stroke-miterlimit:4;stroke-opacity:1;stroke-dasharray:none" />
      <path
         transform="translate(0,872.36218)"
         inkscape:connector-curvature="0"
         id="path13234"
         d="m 519.71089,91.730711 c -0.0199,-0.482236 0.0883,-0.752421 0.24027,-0.600412 0.15201,0.152009 0.16826,0.546565 0.0361,0.876792 -0.14603,0.364928 -0.25443,0.25653 -0.27638,-0.27638 z"
         style="fill:#cfcfcf;fill-opacity:1;stroke:#000000;stroke-width:0.41857275;stroke-miterlimit:4;stroke-opacity:1;stroke-dasharray:none" />
      <path
         transform="translate(0,872.36218)"
         inkscape:connector-curvature="0"
         id="path13236"
         d="m 519.71089,91.730711 c -0.0199,-0.482236 0.0883,-0.752421 0.24027,-0.600412 0.15201,0.152009 0.16826,0.546565 0.0361,0.876792 -0.14603,0.364928 -0.25443,0.25653 -0.27638,-0.27638 z"
         style="fill:#cfcfcf;fill-opacity:1;stroke:#000000;stroke-width:0.41857275;stroke-miterlimit:4;stroke-opacity:1;stroke-dasharray:none" />
      <path
         transform="translate(0,872.36218)"
         inkscape:connector-curvature="0"
         id="path13238"
         d="m 519.67478,88.032937 c 0,-0.377402 0.20585,-0.686185 0.45745,-0.686185 0.25161,0 0.45746,0.308783 0.45746,0.686185 0,0.377402 -0.20585,0.686185 -0.45746,0.686185 -0.2516,0 -0.45745,-0.308783 -0.45745,-0.686185 z"
         style="fill:#cfcfcf;fill-opacity:1;stroke:#000000;stroke-width:0.41857275;stroke-miterlimit:4;stroke-opacity:1;stroke-dasharray:none" />
      <path
         transform="translate(0,872.36218)"
         inkscape:connector-curvature="0"
         id="path13242"
         d="m 517.49233,94.580284 c 0.0996,-0.298777 0.42567,-0.624761 0.72462,-0.72441 0.33428,-0.111429 0.43652,0.09771 0.26555,0.543229 -0.31908,0.831526 -1.26462,1.004539 -0.99017,0.181181 z"
         style="fill:#cfcfcf;fill-opacity:1;stroke:#000000;stroke-width:0.41857275;stroke-miterlimit:4;stroke-opacity:1;stroke-dasharray:none" />
      <path
         transform="translate(0,872.36218)"
         inkscape:connector-curvature="0"
         id="path13250"
         d="m 494.04769,19.074341 c -2.38497,-3.080476 -5.66209,-7.00683 -7.28249,-8.725231 -2.33492,-2.4761547 -2.80947,-3.2108589 -2.28728,-3.5412609 1.03926,-0.6575636 1.12531,-0.6006169 4.01516,2.6569267 5.87838,6.6263212 11.42793,14.0467202 10.94789,14.6386092 -0.25507,0.314502 -0.59723,0.571821 -0.76036,0.571821 -0.16313,0 -2.24794,-2.520389 -4.63292,-5.600865 z"
         style="fill:#cfcfcf;fill-opacity:1;stroke:#000000;stroke-width:0.41857275;stroke-miterlimit:4;stroke-opacity:1;stroke-dasharray:0.41857275,0.41857275;stroke-dashoffset:0" />
      <path
         transform="translate(0,872.36218)"
         inkscape:connector-curvature="0"
         id="path13252"
         d="m 501.21711,35.32572 c -0.16512,-2.712769 -0.53474,-6.127999 -0.82137,-7.5894 -0.39751,-2.026743 -0.39273,-2.785502 0.0201,-3.198372 0.41673,-0.416734 0.63623,-0.38764 0.95395,0.126446 1.03131,1.668685 1.5964,15.098775 0.64892,15.422381 -0.3316,0.113256 -0.60308,-1.49914 -0.80164,-4.761055 z"
         style="fill:#cfcfcf;fill-opacity:1;stroke:#000000;stroke-width:0.419;stroke-miterlimit:4;stroke-opacity:1;stroke-dasharray:0.419,0.419;stroke-dashoffset:0" />
      <path
         transform="translate(0,872.36218)"
         inkscape:connector-curvature="0"
         id="path13254"
         d="m 506.40854,13.292788 c 0,-0.251601 0.20585,-0.584683 0.45745,-0.740181 0.25161,-0.155498 0.45746,-0.07687 0.45746,0.174733 0,0.251601 -0.20585,0.584683 -0.45746,0.740181 -0.2516,0.155498 -0.45745,0.07687 -0.45745,-0.174733 z"
         style="fill:#cfcfcf;fill-opacity:1;stroke:#000000;stroke-width:0.41857275;stroke-miterlimit:4;stroke-opacity:1;stroke-dasharray:none" />
      <path
         transform="translate(0,872.36218)"
         inkscape:connector-curvature="0"
         id="path13256"
         d="m 504.84591,18.10679 c 0.15848,-0.412989 0.47197,-0.750889 0.69666,-0.750889 0.58827,0 0.50565,0.264809 -0.28815,0.923604 -0.5825,0.483433 -0.64944,0.455132 -0.40851,-0.172715 z"
         style="fill:#cfcfcf;fill-opacity:1;stroke:#000000;stroke-width:0.41857275;stroke-miterlimit:4;stroke-opacity:1;stroke-dasharray:none" />
      <path
         transform="translate(0,872.36218)"
         inkscape:connector-curvature="0"
         id="path13258"
         d="m 504.66448,18.242223 c 0.11008,-0.330226 0.47033,-0.690473 0.80055,-0.800549 0.3431,-0.114364 0.51464,0.05718 0.40028,0.400275 -0.11008,0.330226 -0.47032,0.690473 -0.80055,0.800549 -0.34309,0.114364 -0.51464,-0.05718 -0.40028,-0.400275 z"
         style="fill:#cfcfcf;fill-opacity:1;stroke:#000000;stroke-width:0.41857275;stroke-miterlimit:4;stroke-opacity:1;stroke-dasharray:none" />
      <path
         transform="translate(0,872.36218)"
         inkscape:connector-curvature="0"
         id="path13260"
         d="m 505.09944,17.508387 c 0.27842,-0.335468 0.58393,-0.609942 0.67893,-0.609942 0.095,0 0.17271,0.274474 0.17271,0.609942 0,0.335468 -0.30551,0.609942 -0.67892,0.609942 -0.5139,0 -0.55588,-0.148255 -0.17272,-0.609942 z"
         style="fill:#cfcfcf;fill-opacity:1;stroke:#000000;stroke-width:0.41857275;stroke-miterlimit:4;stroke-opacity:1;stroke-dasharray:none" />
      <path
         transform="translate(0,872.36218)"
         inkscape:connector-curvature="0"
         id="path13262"
         d="m 505.5028,16.658661 c 0.31826,-0.383481 0.67286,-0.603033 0.788,-0.487891 0.31725,0.317245 -0.32733,1.185131 -0.88019,1.185131 -0.30333,0 -0.26863,-0.26248 0.0922,-0.69724 z"
         style="fill:#cfcfcf;fill-opacity:1;stroke:#000000;stroke-width:0.41857275;stroke-miterlimit:4;stroke-opacity:1;stroke-dasharray:none" />
      <path
         transform="translate(0,872.36218)"
         inkscape:connector-curvature="0"
         id="path13264"
         d="m 508.23836,11.462962 c 0,-0.251602 0.20586,-0.584683 0.45746,-0.740181 0.2516,-0.155498 0.45746,-0.07687 0.45746,0.174733 0,0.251601 -0.20586,0.584682 -0.45746,0.74018 -0.2516,0.155498 -0.45746,0.07687 -0.45746,-0.174732 z"
         style="fill:#cfcfcf;fill-opacity:1;stroke:#000000;stroke-width:0.41857275;stroke-miterlimit:4;stroke-opacity:1;stroke-dasharray:none" />
      <path
         transform="translate(0,872.36218)"
         inkscape:connector-curvature="0"
         id="path13266"
         d="m 508.23836,11.462962 c 0,-0.251602 0.20586,-0.584683 0.45746,-0.740181 0.2516,-0.155498 0.45746,-0.07687 0.45746,0.174733 0,0.251601 -0.20586,0.584682 -0.45746,0.74018 -0.2516,0.155498 -0.45746,0.07687 -0.45746,-0.174732 z"
         style="fill:#cfcfcf;fill-opacity:1;stroke:#000000;stroke-width:0.41857275;stroke-miterlimit:4;stroke-opacity:1;stroke-dasharray:none" />
      <path
         transform="translate(0,872.36218)"
         inkscape:connector-curvature="0"
         id="path13268"
         d="m 603.25469,75.332138 c -2.28488,-3.201977 -5.22345,-6.069122 -8.0474,-7.851802 -3.37866,-2.132853 -1.92251,-2.958062 1.58873,-0.900341 5.07965,2.976875 11.72524,11.617626 8.9351,11.617626 -0.23741,0 -1.35181,-1.289467 -2.47643,-2.865483 z"
         style="fill:#cfcfcf;fill-opacity:1;stroke:#000000;stroke-width:0.419;stroke-miterlimit:4;stroke-opacity:1;stroke-dasharray:0.419,0.419;stroke-dashoffset:0" />
      <path
         transform="translate(0,872.36218)"
         inkscape:connector-curvature="0"
         id="path13272"
         d="m 592.41037,65.846295 c 0,-0.251602 0.0908,-0.457457 0.20173,-0.457457 0.11095,0 0.32895,0.205855 0.48445,0.457457 0.1555,0.251601 0.0647,0.457456 -0.20173,0.457456 -0.26645,0 -0.48445,-0.205855 -0.48445,-0.457456 z"
         style="fill:#cfcfcf;fill-opacity:1;stroke:#000000;stroke-width:0.41857275;stroke-miterlimit:4;stroke-opacity:1;stroke-dasharray:none" />
      <path
         transform="translate(0,872.36218)"
         inkscape:connector-curvature="0"
         id="path13274"
         d="m 591.49545,66.102021 c 0,-0.110952 0.20586,-0.328957 0.45746,-0.484455 0.2516,-0.155498 0.45746,-0.06472 0.45746,0.201731 0,0.26645 -0.20586,0.484454 -0.45746,0.484454 -0.2516,0 -0.45746,-0.09078 -0.45746,-0.20173 z"
         style="fill:#cfcfcf;fill-opacity:1;stroke:#000000;stroke-width:0.41857275;stroke-miterlimit:4;stroke-opacity:1;stroke-dasharray:none" />
      <path
         transform="translate(0,872.36218)"
         inkscape:connector-curvature="0"
         id="path13276"
         d="m 581.46753,81.20921 c -0.0199,-0.482235 0.0883,-0.752421 0.24026,-0.600412 0.15201,0.152009 0.16826,0.546566 0.0361,0.876792 -0.14604,0.364928 -0.25443,0.256531 -0.27638,-0.27638 z"
         style="fill:#cfcfcf;fill-opacity:1;stroke:#000000;stroke-width:0.41857275;stroke-miterlimit:4;stroke-opacity:1;stroke-dasharray:none" />
      <path
         transform="translate(0,872.36218)"
         inkscape:connector-curvature="0"
         id="path13278"
         d="m 581.46753,83.496493 c -0.0199,-0.482236 0.0883,-0.752421 0.24026,-0.600412 0.15201,0.152009 0.16826,0.546565 0.0361,0.876792 -0.14604,0.364928 -0.25443,0.256531 -0.27638,-0.27638 z"
         style="fill:#cfcfcf;fill-opacity:1;stroke:#000000;stroke-width:0.41857275;stroke-miterlimit:4;stroke-opacity:1;stroke-dasharray:none" />
      <path
         transform="translate(0,872.36218)"
         inkscape:connector-curvature="0"
         id="path13280"
         d="m 580.97395,83.458371 c 0,-0.377401 0.20586,-0.686184 0.45746,-0.686184 0.2516,0 0.45746,0.308783 0.45746,0.686184 0,0.377402 -0.20586,0.686185 -0.45746,0.686185 -0.2516,0 -0.45746,-0.308783 -0.45746,-0.686185 z"
         style="fill:#cfcfcf;fill-opacity:1;stroke:#000000;stroke-width:0.41857275;stroke-miterlimit:4;stroke-opacity:1;stroke-dasharray:none" />
      <path
         transform="translate(0,872.36218)"
         inkscape:connector-curvature="0"
         id="path13282"
         d="m 580.55261,83.953949 c -0.0199,-0.482235 0.0883,-0.75242 0.24027,-0.600411 0.15201,0.152009 0.16826,0.546565 0.0361,0.876791 -0.14603,0.364928 -0.25443,0.256531 -0.27638,-0.27638 z"
         style="fill:#cfcfcf;fill-opacity:1;stroke:#000000;stroke-width:0.41857275;stroke-miterlimit:4;stroke-opacity:1;stroke-dasharray:none" />
      <path
         transform="translate(0,872.36218)"
         inkscape:connector-curvature="0"
         id="path13304"
         d="m 595.38384,110.03562 c -5.05975,-1.60439 -8.65528,-4.64785 -11.49954,-9.73386 -2.91982,-5.221126 -5.67129,-15.527745 -4.36143,-16.337285 0.61941,-0.382813 1.45108,1.131661 1.45108,2.642404 0,1.823044 2.23223,8.462111 3.9559,11.765604 3.26865,6.264517 8.54144,10.495257 13.97933,11.216617 1.49377,0.19815 2.06037,0.43295 1.65892,0.68743 -0.85602,0.54264 -3.03208,0.44152 -5.18426,-0.24091 z"
         style="fill:#cfcfcf;fill-opacity:1;stroke:#000000;stroke-width:0.419;stroke-miterlimit:4;stroke-opacity:1;stroke-dasharray:0.419,0.419;stroke-dashoffset:0.1676" />
      <path
         transform="translate(0,872.36218)"
         inkscape:connector-curvature="0"
         id="path13310"
         d="m 436.927,108.5496 c -0.31272,-0.68632 -2.27531,-4.03943 -4.36133,-7.45134 -7.39131,-12.089272 -16.26137,-29.590911 -15.56672,-30.714882 0.68292,-1.104984 1.5236,-0.01862 3.54965,4.586972 2.74706,6.244587 7.03228,14.282399 12.23169,22.94305 4.00737,6.67507 6.57368,11.39127 6.19853,11.39127 -0.10946,0 -0.48797,0.11088 -0.84114,0.2464 -0.39598,0.15195 -0.86006,-0.23193 -1.21068,-1.00147 z"
         style="fill:#cfcfcf;fill-opacity:1;stroke:#000000;stroke-width:0.41857275;stroke-miterlimit:4;stroke-opacity:1;stroke-dasharray:0.41857275,0.41857275;stroke-dashoffset:0" />
      <path
         transform="translate(0,872.36218)"
         inkscape:connector-curvature="0"
         id="path13312"
         d="m 430.0133,105.87187 c -2.13861,-1.10808 -6.46158,-2.97587 -9.60659,-4.15063 -3.14502,-1.17477 -7.1592,-2.855769 -8.9204,-3.735556 -3.94643,-1.971382 -13.03752,-7.839662 -13.03752,-8.415691 0,-1.204391 1.63758,-0.548599 6.2686,2.510347 6.04527,3.993109 11.03041,6.523185 17.29042,8.7753 6.37601,2.29385 13.16007,5.56533 12.93583,6.23805 -0.32871,0.98614 -0.98088,0.82452 -4.93034,-1.22182 z"
         style="fill:#cfcfcf;fill-opacity:1;stroke:#000000;stroke-width:0.41857275;stroke-miterlimit:4;stroke-opacity:1;stroke-dasharray:0.41857275,0.41857275;stroke-dashoffset:0" />
      <path
         transform="translate(0,872.36218)"
         inkscape:connector-curvature="0"
         id="path13314"
         d="m 419.99249,120.39799 c -1.36374,-2.81151 -6.60116,-10.43172 -13.21388,-19.22561 -2.89038,-3.843754 -5.1418,-7.102087 -5.00315,-7.24074 0.7385,-0.738494 3.12008,1.67953 7.71289,7.8309 8.91537,11.94081 13.12677,18.70451 12.56226,20.17558 -0.42419,1.10542 -0.9747,0.69346 -2.05812,-1.54013 z"
         style="fill:#cfcfcf;fill-opacity:1;stroke:#000000;stroke-width:0.41857275;stroke-miterlimit:4;stroke-opacity:1;stroke-dasharray:0.41857275,0.41857275;stroke-dashoffset:0" />
      <path
         transform="translate(0,872.36218)"
         inkscape:connector-curvature="0"
         id="path13316"
         d="m 400.95061,93.72817 c -0.43469,-0.703332 0.16072,-1.157121 0.74786,-0.569982 0.32854,0.328536 0.33643,0.584413 0.024,0.777514 -0.25614,0.158302 -0.60347,0.06491 -0.77185,-0.207532 z"
         style="fill:#cfcfcf;fill-opacity:1;stroke:#000000;stroke-width:0.41857275;stroke-miterlimit:4;stroke-opacity:1;stroke-dasharray:none" />
      <path
         inkscape:connector-curvature="0"
         d="m 415.16629,1025.937 c -0.71451,0.1555 -1.3756,-0.2311 -1.95426,-0.6431 -0.69488,-0.56 -1.19313,-1.3017 -1.60225,-2.1168 -0.43568,-0.9931 -0.66094,-2.0556 -0.7189,-3.1483 -0.0151,-1.192 0.34717,-2.2898 0.86414,-3.3228 1.26352,-2.0664 3.45762,-3.3526 5.58173,-4.1393 1.03523,-0.2805 1.97386,-0.012 2.9027,0.4846 1.10171,0.62 1.88557,1.6874 2.64477,2.7199 0.79195,1.0843 1.41575,2.2718 1.92447,3.5351 0.46082,1.1925 0.83973,2.4123 1.14074,3.6623 0.34387,1.2559 0.59833,2.5365 0.87042,3.8118 0.31236,1.4581 0.6866,2.8982 1.06712,4.3366 0.32441,1.2715 0.77313,2.486 1.5646,3.4985 0.28215,0.2606 0.67151,0.6122 1.08118,0.4763 0.0807,-0.027 0.29432,-0.1801 0.22047,-0.1355 -1.04053,0.6264 -2.08033,1.2541 -3.1205,1.8812 0.72129,-0.6218 1.18789,-1.5232 1.64956,-2.3719 0.58628,-1.0845 1.08656,-2.2202 1.5914,-3.3508 0.53938,-1.162 1.03477,-2.3467 1.52663,-3.533 1.06723,-2.8792 1.29924,-2.3352 4.54579,-4.4271 0.59901,0.1468 0.87008,0.7822 1.14392,1.3129 0.41706,0.9364 0.80197,1.8923 1.164,2.8556 0.44029,1.202 0.92729,2.3826 1.41544,3.5626 0.50222,1.2139 1.05539,2.4005 1.63139,3.5749 0.4801,0.934 1.00166,1.9361 1.92208,2.4181 1.0639,10e-5 5.04806,-2.5482 -2.33379,1.649 -0.0979,0.056 0.16568,-0.1598 0.23505,-0.2529 0.0769,-0.1035 0.13449,-0.2221 0.20174,-0.3333 0.44091,-0.8698 0.61258,-1.8455 0.7604,-2.8134 0.20636,-1.2646 0.23241,-2.5432 0.21977,-3.823 -0.0262,-1.4862 -0.0525,-2.9721 -0.0715,-4.4583 -0.0198,-1.7019 -0.0304,-3.4039 -0.0411,-5.106 -0.0405,-1.5767 0.0851,-3.1487 0.29985,-4.7066 0.21941,-1.5462 0.70487,-3.0038 1.25757,-4.4401 0.50589,-1.4409 1.29773,-2.7018 2.18991,-3.8895 0.78142,-1.0327 1.71659,-1.9033 2.71345,-2.6812 2.06974,-1.5228 4.21783,-2.8919 6.60851,-3.6735 1.28923,-0.3832 2.58907,-0.7114 3.90294,-0.9791 1.2092,-0.2471 2.44695,-0.2563 3.67352,-0.2842 1.40404,0.017 2.79802,0.1837 4.19219,0.3468 1.30006,0.145 2.58612,0.4033 3.88266,0.5812 0.86137,0.1001 0.43415,0.04 1.28172,0.1808 0.0478,0.073 -3.15271,2.5149 -3.20057,2.4414 l 0,0 c -0.84163,-0.1263 -0.41554,-0.067 -1.27833,-0.1753 -1.29251,-0.1873 -2.57702,-0.4394 -3.87558,-0.5751 -1.3838,-0.1604 -2.77043,-0.3112 -4.16419,-0.3 -1.21572,0.036 -2.43941,0.067 -3.63401,0.3404 -1.30495,0.2799 -2.59921,0.6118 -3.87566,1.0195 -0.58075,0.2113 -1.15038,0.4334 -1.70449,0.7186 -0.18117,0.093 -0.70866,0.4072 -0.53643,0.2958 0.78488,-0.508 4.16804,-2.6249 2.373,-1.49 -1.01264,0.7321 -1.95964,1.5752 -2.75579,2.5777 -0.90861,1.1414 -1.72729,2.3607 -2.23919,3.7743 -0.55079,1.4101 -1.06927,2.8253 -1.2975,4.3473 -0.23235,1.5351 -0.36353,3.0887 -0.32947,4.6462 0.008,1.7009 0.019,3.4018 0.0402,5.1026 0.0196,1.4858 0.0447,2.9714 0.0752,4.4569 0.0177,1.2998 0.0131,2.5995 -0.18799,3.8861 -0.14017,1.0069 -0.2982,2.018 -0.69614,2.9505 -0.8671,1.8857 -3.05568,3.5488 -4.97319,2.9852 -0.92627,-0.6243 -1.53039,-1.5992 -2.03324,-2.6301 -0.58043,-1.1828 -1.13741,-2.378 -1.64385,-3.6003 -0.48951,-1.1846 -0.98157,-2.368 -1.42508,-3.574 -0.35373,-0.9477 -0.73649,-1.8847 -1.14342,-2.8066 -0.13333,-0.2561 -0.42762,-1.1009 -0.79766,-0.7557 4.92162,-3.1823 2.92551,-2.5428 2.06856,-0.014 -0.48606,1.1913 -0.98043,2.3799 -1.52165,3.5434 -0.49911,1.14 -1.00496,2.2805 -1.57791,3.3791 -0.46414,0.8962 -0.96093,1.7683 -1.57002,2.5596 -2.15757,1.3261 -3.40858,3.3392 -5.20112,1.5 -0.80703,-1.0717 -1.30202,-2.3242 -1.63912,-3.6545 -0.38174,-1.4453 -0.76162,-2.8908 -1.07877,-4.3547 -0.27086,-1.272 -0.52293,-2.5495 -0.86675,-3.8015 -0.29021,-1.231 -0.65978,-2.4307 -1.11062,-3.6046 -0.49065,-1.2314 -1.09844,-2.3854 -1.87123,-3.4388 -0.72819,-0.9833 -1.47833,-1.9974 -2.5523,-2.5516 -0.88688,-0.4202 -1.78291,-0.5783 -2.71848,-0.2057 -1.42109,0.6817 -0.80014,0.4047 2.51614,-1.6743 0.14153,-0.088 -0.27988,0.1845 -0.40959,0.2923 -0.22155,0.1842 -0.54821,0.5316 -0.73042,0.7612 -0.10479,0.132 -0.19582,0.276 -0.29373,0.4136 -0.54206,0.9497 -0.93156,1.9742 -0.9603,3.1067 0.0233,1.0338 0.23224,2.0354 0.63627,2.9768 0.37603,0.7523 0.83699,1.4376 1.49748,1.9286 0.5653,0.3561 1.13706,0.5813 1.7909,0.376 0.0503,0.072 -3.08317,2.6404 -3.1335,2.5683 z"
         id="path16766"
         style="fill:#030303;fill-opacity:1;stroke:url(#linearGradient16774);stroke-width:1.00677645;stroke-miterlimit:4;stroke-opacity:1;stroke-dasharray:6.04065854, 6.04065854;stroke-dashoffset:3.22168454;marker-start:url(#Tail);marker-end:url(#Tail)" />
      <path
         transform="translate(0,872.36218)"
         inkscape:connector-curvature="0"
         d="m 504.89422,85.941506 c -0.001,0.374718 -0.001,0.749439 -0.002,1.124159 0.0129,0.539215 0.0847,1.073646 0.15512,1.607558 0.0879,0.577433 0.22147,1.146885 0.38663,1.706781 0.18635,0.661226 0.39773,1.314271 0.60798,1.968133 0.23557,0.769094 0.4428,1.546087 0.63763,2.326357 0.0308,0.131404 0.0616,0.262808 0.0924,0.394212 0.0186,0.03448 -1.607,0.910241 -1.62558,0.875757 l 0,0 c -0.0303,-0.130625 -0.0606,-0.26125 -0.0909,-0.391875 -0.19285,-0.776587 -0.39914,-1.549612 -0.63234,-2.315175 -0.21038,-0.655051 -0.42593,-1.308052 -0.61122,-1.970851 -0.17092,-0.568043 -0.30756,-1.146259 -0.40095,-1.732328 -0.0715,-0.541293 -0.14698,-1.082234 -0.16726,-1.628599 -2.3e-4,-0.374149 -4.7e-4,-0.7483 -0.002,-1.122448 -0.0179,-0.03504 1.63403,-0.876723 1.65189,-0.841681 z"
         id="path17844"
         style="fill:#f7f7f7;fill-opacity:1;stroke:#000000;stroke-width:0.41899999999999998;stroke-miterlimit:4;stroke-opacity:1;stroke-dasharray:0.41899999999999998, 0.41899999999999998;stroke-dashoffset:0" />
      <path
         transform="translate(0,872.36218)"
         inkscape:connector-curvature="0"
         d="m 504.66217,84.536776 c -0.0145,0.325749 0.0145,0.649168 0.0461,0.972928 0.0463,0.51023 0.127,1.016542 0.18822,1.525141 0.0741,0.574378 0.17735,1.143591 0.28322,1.712714 0.0996,0.532399 0.20667,1.064199 0.32596,1.592618 0.12737,0.525221 0.27001,1.046071 0.38327,1.574697 0.13413,0.535042 0.22763,1.078628 0.3401,1.618204 0.0968,0.509422 0.22893,1.009735 0.37721,1.506197 0.15356,0.488336 0.3452,0.962825 0.53666,1.43711 0.0191,0.03422 -1.59404,0.935656 -1.61316,0.901436 l 0,0 c -0.19328,-0.479658 -0.38814,-0.95887 -0.54495,-1.45212 -0.15001,-0.501097 -0.2878,-1.005074 -0.38413,-1.519745 -0.11542,-0.538864 -0.20206,-1.083924 -0.34009,-1.618074 -0.11079,-0.528266 -0.25237,-1.048293 -0.38199,-1.572016 -0.1229,-0.530109 -0.22664,-1.065435 -0.32891,-1.59977 -0.10585,-0.572929 -0.21199,-1.145278 -0.28947,-1.722969 -0.0599,-0.50975 -0.14103,-1.016887 -0.1914,-1.527571 -0.033,-0.32856 -0.0719,-0.656277 -0.0584,-0.987183 -0.0179,-0.03504 1.63388,-0.876636 1.65173,-0.841597 z"
         id="path17862"
         style="fill:#0e0e0e;fill-opacity:1;stroke:#000000;stroke-width:0.419;stroke-miterlimit:4;stroke-opacity:1;stroke-dasharray:0.419, 0.419;stroke-dashoffset:0" />
      <path
         transform="translate(0,872.36218)"
         inkscape:connector-curvature="0"
         d="m 512.55473,87.269566 c 0.11967,0.275879 0.25327,0.545194 0.36855,0.82301 0.16293,0.391414 0.33779,0.777529 0.51017,1.164812 0.17966,0.437215 0.3811,0.865026 0.5759,1.295673 0.20338,0.447717 0.3975,0.899257 0.58579,1.353532 0.16972,0.458579 0.33339,0.919243 0.50601,1.37682 0.18715,0.461891 0.35629,0.929229 0.57747,1.376311 0.25357,0.456431 0.50029,0.917012 0.72001,1.390782 0.11328,0.228612 0.21382,0.462856 0.31192,0.698233 0.0192,0.0342 -1.59325,0.937343 -1.6124,0.903139 l 0,0 c -0.0965,-0.233437 -0.19552,-0.465692 -0.30822,-0.69191 -0.21786,-0.472769 -0.46444,-0.931592 -0.71742,-1.386394 -0.22504,-0.452203 -0.39763,-0.924461 -0.58687,-1.392264 -0.17166,-0.455878 -0.33716,-0.91378 -0.50314,-1.371684 -0.18693,-0.452641 -0.38048,-0.902201 -0.58287,-1.348129 -0.19557,-0.430733 -0.39687,-0.859122 -0.57697,-1.296552 -0.17282,-0.388842 -0.34946,-0.775908 -0.51368,-1.168517 -0.11269,-0.274061 -0.24561,-0.538631 -0.36538,-0.809511 -0.0195,-0.03418 1.59167,-0.951528 1.61113,-0.917351 z"
         id="path17870"
         style="fill:#0e0e0e;fill-opacity:1;stroke:#000000;stroke-width:0.419;stroke-miterlimit:4;stroke-opacity:1;stroke-dasharray:0.419, 0.419;stroke-dashoffset:0" />
      <path
         transform="translate(0,872.36218)"
         inkscape:connector-curvature="0"
         d="m 585.14258,70.194434 c -0.14592,0.37955 -0.28046,0.763151 -0.42882,1.14181 -0.23479,0.611292 -0.49979,1.210259 -0.74217,1.8184 -0.26758,0.678146 -0.55851,1.346636 -0.83843,2.019725 -0.2997,0.672003 -0.54509,1.362984 -0.77666,2.060578 -0.21072,0.620154 -0.37558,1.254317 -0.56542,1.880875 -0.18843,0.596679 -0.33506,1.205279 -0.50521,1.807247 -0.16024,0.572705 -0.30971,1.146831 -0.49786,1.711182 -0.0828,0.263268 -0.17537,0.523281 -0.26609,0.783872 0.0166,0.03553 -1.65842,0.819624 -1.67505,0.78409 l 0,0 c 0.0903,-0.260339 0.18708,-0.518457 0.26718,-0.782203 0.18977,-0.562163 0.3495,-1.130759 0.50199,-1.704166 0.17572,-0.60142 0.31691,-1.212292 0.50373,-1.810456 0.19622,-0.625979 0.35471,-1.263245 0.56441,-1.885119 0.23474,-0.699955 0.46461,-1.400173 0.77157,-2.073156 0.2812,-0.671201 0.56629,-1.340747 0.83907,-2.01544 0.23462,-0.611042 0.5096,-1.205848 0.74061,-1.81846 0.14972,-0.374706 0.27853,-0.75675 0.42913,-1.130715 -0.0167,-0.0356 1.66131,-0.82366 1.67802,-0.788064 z"
         id="path17878"
         style="fill:#0e0e0e;fill-opacity:1;stroke:#000000;stroke-width:0.419;stroke-miterlimit:4;stroke-opacity:1;stroke-dasharray:0.419, 0.419;stroke-dashoffset:0" />
      <path
         transform="translate(0,872.36218)"
         inkscape:connector-curvature="0"
         d="m 583.98481,70.3576 c 0.19233,-0.319883 0.39364,-0.633069 0.61135,-0.936275 0.31474,-0.403896 0.62726,-0.808785 0.92371,-1.226398 0.19132,-0.283009 0.0991,-0.140381 0.27694,-0.427766 -0.0159,-0.03588 1.67539,-0.785327 1.69129,-0.749449 l 0,0 c -0.17332,0.296931 -0.0829,0.15006 -0.27153,0.440517 -0.29555,0.418564 -0.59627,0.832778 -0.92194,1.228731 -0.2208,0.29639 -0.42633,0.601749 -0.61483,0.919395 0.0159,0.03596 -1.67905,0.787201 -1.69499,0.751245 z"
         id="path17880"
         style="fill:#0e0e0e;fill-opacity:1;stroke:#000000;stroke-width:0.419;stroke-miterlimit:4;stroke-opacity:1;stroke-dasharray:0.419, 0.419;stroke-dashoffset:0" />
      <path
         transform="translate(0,872.36218)"
         inkscape:connector-curvature="0"
         d="m 584.21678,70.125631 c 0.0975,-0.156577 0.0442,-0.07401 0.16087,-0.246985 -0.0157,-0.03602 1.68241,-0.77518 1.69809,-0.739158 l 0,0 c -0.11829,0.165392 -0.0639,0.08691 -0.16397,0.234898 0.0159,0.03596 -1.67906,0.787201 -1.69499,0.751245 z"
         id="path17888"
         style="fill:#0e0e0e;fill-opacity:1;stroke:#000000;stroke-width:0.419;stroke-miterlimit:4;stroke-opacity:1;stroke-dasharray:0.419, 0.419;stroke-dashoffset:0" />
      <path
         transform="translate(0,872.36218)"
         inkscape:connector-curvature="0"
         d="m 585.59902,69.278527 c -0.0137,0.02024 -0.14366,0.284435 -0.15231,0.273298 -0.0174,-0.02235 -0.005,-0.09032 -0.0313,-0.07893 -0.52743,0.231965 -1.03081,0.515154 -1.54621,0.772732 1.33152,-1.022764 2.088,-1.354252 1.7051,-0.185529 0.0166,0.03559 -1.66121,0.818968 -1.67782,0.783376 l 0,0 c 0.38254,-0.976065 -0.0555,-0.355668 1.76935,-1.341895 0.0274,-0.0148 -0.052,0.03419 -0.078,0.05128 -0.23333,0.124739 -2.35546,1.61856 -1.67773,0.489795 -0.0162,-0.03583 1.67273,-0.799955 1.68894,-0.764127 z"
         id="path17890"
         style="fill:#0e0e0e;fill-opacity:1;stroke:#000000;stroke-width:0.419;stroke-miterlimit:4;stroke-opacity:1;stroke-dasharray:0.419, 0.419;stroke-dashoffset:0" />
      <path
         transform="translate(0,872.36218)"
         inkscape:connector-curvature="0"
         d="m 509.51627,8.4961748 c -0.17449,0.3065853 -0.33773,0.6195852 -0.49605,0.9347892 -0.2149,0.4374997 -0.40747,0.885004 -0.59726,1.333786 -0.10136,0.282795 -0.24574,0.566113 -0.27298,0.868055 0.005,-0.08942 -0.009,-0.04695 0.0479,-0.125229 -0.50047,0.281202 -0.99745,0.568705 -1.5014,0.843606 -0.042,0.02289 0.0777,-0.05587 0.11409,-0.08685 0.0983,-0.08363 0.15063,-0.146097 0.23948,-0.241805 0.28664,-0.329049 0.4812,-0.725679 0.68237,-1.109848 0.23958,-0.440408 0.42813,-0.904449 0.66658,-1.3454076 0.24725,-0.4772744 0.53904,-0.927568 0.85138,-1.3642007 0.34562,-0.4466031 0.66626,-0.9112459 0.99125,-1.3727881 0.22248,-0.2943048 0.10881,-0.1492389 0.34096,-0.4352165 -0.0153,-0.036103 1.68655,-0.7599367 1.7019,-0.7238339 l 0,0 c -0.23489,0.2786934 -0.11937,0.1378264 -0.34656,0.4225958 -0.32787,0.4598978 -0.63929,0.9317485 -0.99039,1.3747331 -0.31577,0.4286004 -0.61626,0.8689387 -0.85986,1.3435031 -0.24843,0.4354443 -0.43457,0.8972347 -0.66864,1.3397868 -0.19918,0.394897 -0.40024,0.795875 -0.66222,1.152858 -0.51844,0.597755 -1.5012,1.786826 -2.21764,1.247138 -0.16218,-0.313382 0.12501,-0.710466 0.20342,-1.013141 0.18723,-0.452647 0.38184,-0.901869 0.59172,-1.344491 0.15668,-0.3187068 0.32313,-0.6320122 0.48696,-0.9467993 -0.0159,-0.035956 1.67905,-0.7872011 1.69499,-0.7512449 z"
         id="path17892"
         style="fill:#0e0e0e;fill-opacity:1;stroke:#000000;stroke-width:0.419;stroke-miterlimit:4;stroke-opacity:1;stroke-dasharray:0.419, 0.419;stroke-dashoffset:0" />
      <path
         transform="translate(0,872.36218)"
         inkscape:connector-curvature="0"
         d="m 502.33178,20.71627 c 0.17053,-0.301436 0.33442,-0.606965 0.484,-0.919357 0.2029,-0.448686 0.41179,-0.894686 0.62515,-1.338491 0.25084,-0.49788 0.5033,-0.994708 0.76478,-1.487122 0.25239,-0.482103 0.48353,-0.975121 0.71627,-1.466941 0.21558,-0.468076 0.41041,-0.944922 0.6035,-1.422564 0.18586,-0.481602 0.41728,-0.942657 0.63311,-1.410892 0.0363,-0.07819 0.0727,-0.156388 0.109,-0.234582 -0.0163,-0.03571 1.66717,-0.802456 1.68343,-0.766745 l 0,0 c -0.0367,0.07746 -0.0733,0.154922 -0.10997,0.232383 -0.20912,0.46937 -0.45017,0.923764 -0.63651,1.403384 -0.19095,0.48121 -0.38826,0.959572 -0.59932,1.432335 -0.23012,0.495499 -0.46731,0.98802 -0.71258,1.476137 -0.26445,0.489079 -0.51374,0.985685 -0.76714,1.480309 -0.21726,0.440654 -0.42315,0.887027 -0.62564,1.334588 -0.14264,0.319979 -0.31313,0.625104 -0.47309,0.936313 0.0159,0.03596 -1.67905,0.787201 -1.69499,0.751245 z"
         id="path17894"
         style="fill:#0e0e0e;fill-opacity:1;stroke:#000000;stroke-width:0.419;stroke-miterlimit:4;stroke-opacity:1;stroke-dasharray:0.419, 0.419;stroke-dashoffset:0" />
      <path
         transform="translate(0,872.36218)"
         inkscape:connector-curvature="0"
         d="m 501.64905,21.394733 c 0.34882,-0.271513 0.64019,-0.606922 0.92421,-0.943243 0.21554,-0.237494 0.36149,-0.521353 0.52727,-0.791551 2.24665,-1.117231 1.8311,-1.081385 1.38998,-0.280554 -0.18995,0.338302 -0.39913,0.666419 -0.5427,1.027938 -0.0236,0.204982 -0.0979,0.176957 0.002,0.07445 0.0408,-0.04204 0.16615,-0.10726 0.2067,-0.130327 0.67418,-0.415223 -0.35574,0.221383 -1.27707,0.722283 -0.061,0.03319 0.11127,-0.08337 0.16443,-0.128123 0.18316,-0.154216 0.34936,-0.327007 0.51458,-0.499744 0.34076,-0.371126 0.56635,-0.82698 0.77853,-1.279313 0.19571,-0.486986 0.35698,-0.988117 0.49999,-1.492987 0.12658,-0.485867 0.26158,-0.969 0.36792,-1.459843 0.0643,-0.373207 0.22529,-0.719009 0.31349,-1.085418 0.35165,0.49889 -0.0414,0.115476 1.6184,-0.730693 0.0336,-0.01711 -0.0411,0.0632 -0.0601,0.0957 -0.0635,0.108378 -0.0765,0.142058 -0.1335,0.260455 -0.18446,0.394681 -0.36893,0.789901 -0.56825,1.177316 -0.29372,0.542119 -0.60174,1.076681 -0.9229,1.602991 -0.34433,0.574126 -0.69285,1.145448 -1.06575,1.701521 -0.36264,0.550824 -0.79599,1.04904 -1.18908,1.577025 -0.0713,0.151786 -0.43066,0.601613 -0.0493,0.57527 0.15185,-0.0306 0.30563,-0.0764 0.44593,-0.143137 0.0652,-0.03101 0.252,-0.140966 0.18919,-0.105382 -1.46733,0.831319 -1.79832,1.095104 -1.16164,0.616042 0.45732,-0.365693 0.82531,-0.819124 1.15016,-1.302389 0.32468,-0.486112 0.53894,-1.02838 0.74704,-1.570858 0.19793,-0.494292 0.3362,-1.008701 0.47791,-1.521014 0.0814,-0.383024 0.30661,-0.76741 0.26607,-1.168871 -0.008,-0.01045 -0.012,-0.0284 -0.0251,-0.03136 -0.012,-0.0027 -0.33938,0.2119 -0.1593,0.112467 1.4679,-0.810499 1.93617,-1.2056 1.3667,-0.739346 -0.33575,0.335355 -0.63507,0.703034 -0.91949,1.082077 -0.33144,0.470937 -0.65068,0.950455 -0.97111,1.428947 -0.25572,0.407865 -0.58641,0.781656 -0.73424,1.246857 -0.0128,0.201236 0.56123,-0.148989 0.63493,-0.184689 0.64322,-0.350258 0.44649,-0.245126 -1.16279,0.673389 -0.0784,0.04473 0.15596,-0.09086 0.23326,-0.13743 0.25096,-0.151198 0.47773,-0.316596 0.70545,-0.500597 0.44876,-0.376276 0.81642,-0.83105 1.16524,-1.298038 0.37731,-0.530365 0.68287,-1.105633 0.96706,-1.68969 0.30749,-0.68201 0.588,-1.376042 0.85144,-2.076155 0.25822,-0.68799 0.50531,-1.380018 0.79597,-2.055149 0.2668,-0.61055 0.52392,-1.225188 0.80164,-1.830903 0.27187,-0.605567 0.62885,-1.1647146 0.99249,-1.717806 0.35502,-0.5646178 0.77623,-1.0804686 1.21127,-1.5841884 0.38688,-0.4519409 0.83486,-0.8399725 1.30815,-1.1975413 0.0742,-0.050849 0.14848,-0.1016977 0.22272,-0.1525465 -0.0143,-0.036544 1.70843,-0.7097234 1.72271,-0.6731794 l 0,0 c -0.0754,0.047995 -0.15087,0.09599 -0.2263,0.1439858 -0.47928,0.3425029 -0.93218,0.7185799 -1.32458,1.1601744 -0.43627,0.4971858 -0.8664,1.0014341 -1.22137,1.5615778 -0.36129,0.5478167 -0.72863,1.0940781 -1.00353,1.6923829 -0.28048,0.6039037 -0.53916,1.2171427 -0.80405,1.8279597 -0.29776,0.669681 -0.54331,1.359567 -0.80007,2.045706 -0.26039,0.705552 -0.54553,1.401682 -0.84457,2.09167 -0.28198,0.592345 -0.58252,1.176242 -0.95186,1.720029 -0.34361,0.478784 -0.70832,0.943868 -1.1478,1.339681 -0.87459,0.750992 -1.93106,1.264901 -2.93985,1.807482 -0.30239,0.129428 -0.76367,0.294056 -0.85555,-0.164624 0.0905,-0.500456 0.4435,-0.889787 0.71059,-1.306845 0.31701,-0.482669 0.64616,-0.957389 0.96649,-1.437902 0.28406,-0.384588 0.57641,-0.76062 0.90575,-1.10823 0.53339,-0.610078 0.14434,-0.192381 1.80404,-1.110695 0.14455,-0.07998 0.30607,0.08252 0.36242,0.19328 0.0931,0.423565 -0.12701,0.840973 -0.23309,1.242851 -0.14046,0.517291 -0.27631,1.037299 -0.47011,1.537859 -0.21274,0.549487 -0.41091,1.10749 -0.73158,1.606759 -0.31715,0.498269 -0.67473,0.97009 -1.12706,1.355411 -0.71906,0.620467 -0.23391,0.223945 -2.0008,1.22814 -0.21254,0.120795 -0.46945,0.180609 -0.71125,0.150149 -0.42372,-0.178063 -0.32267,-0.556859 -0.12479,-0.896693 0.37667,-0.539068 0.82901,-1.022411 1.1921,-1.572412 0.37727,-0.55142 0.72827,-1.119458 1.06886,-1.694204 0.3245,-0.521257 0.62958,-1.054505 0.92614,-1.592076 0.21068,-0.378542 0.38387,-0.77777 0.56921,-1.169053 0.31962,-0.664941 1.47322,-2.315792 1.93105,-1.196663 -0.0761,0.371203 -0.23982,0.713931 -0.3175,1.085208 -0.10203,0.495137 -0.23629,0.98128 -0.36326,1.470312 -0.13907,0.513659 -0.3065,1.019101 -0.48756,1.519347 -0.20654,0.466185 -0.43224,0.935422 -0.75472,1.333303 -0.70952,0.792212 -1.53503,1.354713 -2.55552,1.776581 -0.30026,0.127741 -0.5171,0.04791 -0.43937,-0.317295 0.12318,-0.377254 0.32939,-0.714211 0.53068,-1.054304 0.45448,-0.830025 0.60597,-0.849506 1.9809,-1.260567 -0.0669,0.320856 -0.34391,0.580588 -0.50614,0.85169 -0.27817,0.345552 -0.56877,0.686841 -0.90555,0.976922 0.0146,0.0365 -1.70582,0.726936 -1.72047,0.69044 z"
         id="path17896"
         style="fill:#0e0e0e;fill-opacity:1;stroke:#000000;stroke-width:0.419;stroke-miterlimit:4;stroke-opacity:1;stroke-dasharray:0.419, 0.419;stroke-dashoffset:0" />
    </g>
  </g>
</svg>
