<?xml version="1.0" encoding="UTF-8" standalone="no"?>
<!-- Created with Inkscape (http://www.inkscape.org/) -->

<svg
   xmlns:dc="http://purl.org/dc/elements/1.1/"
   xmlns:cc="http://creativecommons.org/ns#"
   xmlns:rdf="http://www.w3.org/1999/02/22-rdf-syntax-ns#"
   xmlns:svg="http://www.w3.org/2000/svg"
   xmlns="http://www.w3.org/2000/svg"
   xmlns:sodipodi="http://sodipodi.sourceforge.net/DTD/sodipodi-0.dtd"
   xmlns:inkscape="http://www.inkscape.org/namespaces/inkscape"
   width="1000"
   height="180"
   id="svg3886"
   version="1.1"
   inkscape:version="0.48.3.1 r9886"
   sodipodi:docname="logo_new1.svg"
   inkscape:export-filename="/home/joe/sites/portfolio/wp-content/themes/webcraft/library/images/logo_new.png"
   inkscape:export-xdpi="51.223919"
   inkscape:export-ydpi="51.223919">
  <defs
     id="defs3888">
    <marker
       inkscape:stockid="Arrow1Mstart"
       orient="auto"
       refY="0.0"
       refX="0.0"
       id="Arrow1Mstart"
       style="overflow:visible">
      <path
         id="path4470"
         d="M 0.0,0.0 L 5.0,-5.0 L -12.5,0.0 L 5.0,5.0 L 0.0,0.0 z "
         style="fill-rule:evenodd;stroke:#000000;stroke-width:1.0pt"
         transform="scale(0.4) translate(10,0)" />
    </marker>
    <marker
       inkscape:stockid="DotL"
       orient="auto"
       refY="0.0"
       refX="0.0"
       id="DotL"
       style="overflow:visible">
      <path
         id="path4525"
         d="M -2.5,-1.0 C -2.5,1.7600000 -4.7400000,4.0 -7.5,4.0 C -10.260000,4.0 -12.5,1.7600000 -12.5,-1.0 C -12.5,-3.7600000 -10.260000,-6.0 -7.5,-6.0 C -4.7400000,-6.0 -2.5,-3.7600000 -2.5,-1.0 z "
         style="fill-rule:evenodd;stroke:#000000;stroke-width:1.0pt"
         transform="scale(0.8) translate(7.4, 1)" />
    </marker>
    <marker
       inkscape:stockid="Arrow2Lend"
       orient="auto"
       refY="0.0"
       refX="0.0"
       id="Arrow2Lend"
       style="overflow:visible;">
      <path
         id="path4485"
         style="fill-rule:evenodd;stroke-width:0.62500000;stroke-linejoin:round;"
         d="M 8.7185878,4.0337352 L -2.2072895,0.016013256 L 8.7185884,-4.0017078 C 6.9730900,-1.6296469 6.9831476,1.6157441 8.7185878,4.0337352 z "
         transform="scale(1.1) rotate(180) translate(1,0)" />
    </marker>
    <marker
       inkscape:stockid="Arrow1Lstart"
       orient="auto"
       refY="0.0"
       refX="0.0"
       id="Arrow1Lstart"
       style="overflow:visible">
      <path
         id="path4464"
         d="M 0.0,0.0 L 5.0,-5.0 L -12.5,0.0 L 5.0,5.0 L 0.0,0.0 z "
         style="fill-rule:evenodd;stroke:#000000;stroke-width:1.0pt"
         transform="scale(0.8) translate(12.5,0)" />
    </marker>
    <marker
       inkscape:stockid="Arrow1Lend"
       orient="auto"
       refY="0.0"
       refX="0.0"
       id="Arrow1Lend"
       style="overflow:visible;">
      <path
         id="path4467"
         d="M 0.0,0.0 L 5.0,-5.0 L -12.5,0.0 L 5.0,5.0 L 0.0,0.0 z "
         style="fill-rule:evenodd;stroke:#000000;stroke-width:1.0pt;"
         transform="scale(0.8) rotate(180) translate(12.5,0)" />
    </marker>
    <marker
       inkscape:stockid="Tail"
       orient="auto"
       refY="0.0"
       refX="0.0"
       id="Tail"
       style="overflow:visible">
      <g
         id="g4500"
         transform="scale(-1.2)">
        <path
           id="path4502"
           d="M -3.8048674,-3.9585227 L 0.54352094,0"
           style="fill:none;fill-rule:evenodd;stroke:#000000;stroke-width:0.8;stroke-linecap:round" />
        <path
           id="path4504"
           d="M -1.2866832,-3.9585227 L 3.0617053,0"
           style="fill:none;fill-rule:evenodd;stroke:#000000;stroke-width:0.8;stroke-linecap:round" />
        <path
           id="path4506"
           d="M 1.3053582,-3.9585227 L 5.6537466,0"
           style="fill:none;fill-rule:evenodd;stroke:#000000;stroke-width:0.8;stroke-linecap:round" />
        <path
           id="path4508"
           d="M -3.8048674,4.1775838 L 0.54352094,0.21974226"
           style="fill:none;fill-rule:evenodd;stroke:#000000;stroke-width:0.8;stroke-linecap:round" />
        <path
           id="path4510"
           d="M -1.2866832,4.1775838 L 3.0617053,0.21974226"
           style="fill:none;fill-rule:evenodd;stroke:#000000;stroke-width:0.8;stroke-linecap:round" />
        <path
           id="path4512"
           d="M 1.3053582,4.1775838 L 5.6537466,0.21974226"
           style="fill:none;fill-rule:evenodd;stroke:#000000;stroke-width:0.8;stroke-linecap:round" />
      </g>
    </marker>
    <marker
       inkscape:stockid="EmptyDiamondL"
       orient="auto"
       refY="0.0"
       refX="0.0"
       id="EmptyDiamondL"
       style="overflow:visible">
      <path
         id="path4570"
         d="M 0,-7.0710768 L -7.0710894,0 L 0,7.0710589 L 7.0710462,0 L 0,-7.0710768 z "
         style="fill-rule:evenodd;fill:#FFFFFF;stroke:#000000;stroke-width:1.0pt"
         transform="scale(0.8)" />
    </marker>
    <filter
       inkscape:collect="always"
       id="filter11178">
      <feGaussianBlur
         inkscape:collect="always"
         stdDeviation="0.11771721"
         id="feGaussianBlur11180" />
    </filter>
  </defs>
  <sodipodi:namedview
     id="base"
     pagecolor="#ffffff"
     bordercolor="#666666"
     borderopacity="1.0"
     inkscape:pageopacity="0.0"
     inkscape:pageshadow="2"
     inkscape:zoom="1.093"
     inkscape:cx="500"
     inkscape:cy="90"
     inkscape:document-units="px"
     inkscape:current-layer="layer1"
     showgrid="false"
     width="1000px"
     inkscape:window-width="1226"
     inkscape:window-height="1000"
     inkscape:window-x="54"
     inkscape:window-y="24"
     inkscape:window-maximized="1" />
  <metadata
     id="metadata3891">
    <rdf:RDF>
      <cc:Work
         rdf:about="">
        <dc:format>image/svg+xml</dc:format>
        <dc:type
           rdf:resource="http://purl.org/dc/dcmitype/StillImage" />
        <dc:title></dc:title>
      </cc:Work>
    </rdf:RDF>
  </metadata>
  <g
     inkscape:label="Layer 1"
     inkscape:groupmode="layer"
     id="layer1"
     transform="translate(0,-872.36218)">
    <flowRoot
       xml:space="preserve"
       id="flowRoot6382"
       style="font-size:36px;font-style:normal;font-variant:normal;font-weight:normal;font-stretch:normal;line-height:125%;letter-spacing:0px;word-spacing:0px;fill:#000000;fill-opacity:1;stroke:none;font-family:Type Keys Filled;-inkscape-font-specification:Type Keys Filled"
       transform="translate(0,872.36218)"><flowRegion
         id="flowRegion6384"><rect
           id="rect6386"
           width="167.42909"
           height="38.42635"
           x="538.88379"
           y="85.763954"
           style="font-style:normal;font-variant:normal;font-weight:normal;font-stretch:normal;font-family:Type Keys Filled;-inkscape-font-specification:Type Keys Filled" /></flowRegion><flowPara
         id="flowPara6388">webcra</flowPara></flowRoot>    <text
       xml:space="preserve"
       style="font-size:36px;font-style:normal;font-variant:normal;font-weight:normal;font-stretch:normal;line-height:125%;letter-spacing:0px;word-spacing:0px;fill:#000000;fill-opacity:1;stroke:none;font-family:Ume Gothic S5;-inkscape-font-specification:Ume Gothic S5"
       x="509.6066"
       y="82.104301"
       id="text6402"
       sodipodi:linespacing="125%"
       transform="translate(0,872.36218)"><tspan
         sodipodi:role="line"
         id="tspan6404"></tspan></text>
    <path
       style="fill:#cfcfcf;fill-opacity:1;stroke:#000000;stroke-width:0.41857275;stroke-miterlimit:4;stroke-opacity:1;stroke-dasharray:none"
       d=""
       id="path13270"
       inkscape:connector-curvature="0"
       transform="translate(0,872.36218)" />
    <g
       id="g6397"
       transform="matrix(1.5494692,0,0,1.5153097,-144.8229,-472.37813)"
       inkscape:export-filename="/home/joe/Desktop/logo_new.png"
       inkscape:export-xdpi="51.355053"
       inkscape:export-ydpi="51.355053">
      <g
         transform="translate(0.91491308,0)"
         id="g6394">
        <path
           sodipodi:type="spiral"
           style="fill:none;stroke:#000000;stroke-width:1px;stroke-linecap:butt;stroke-linejoin:miter;stroke-opacity:1"
           id="path6390"
           sodipodi:cx="414.45563"
           sodipodi:cy="66.550781"
           sodipodi:expansion="0.20999999"
           sodipodi:revolution="3.24"
           sodipodi:radius="15.580408"
           sodipodi:argument="-17.918184"
           sodipodi:t0="0.13827787"
           d="m 405.99618,60.703886 c 3.01135,-5.135889 9.90655,-6.533055 14.87694,-3.438099 5.43413,3.383717 6.89981,10.793983 3.48401,16.128593 -3.64396,5.690923 -11.46971,7.21389 -17.08987,3.556725 -5.91339,-3.847971 -7.48675,-12.022093 -3.63424,-17.880563 4.01756,-6.109472 12.49274,-7.728037 18.55726,-3.710464 6.28502,4.163652 7.94465,12.904811 3.78353,19.1517 -4.29256,6.444206 -13.2726,8.141515 -19.68362,3.852977 -6.59005,-4.408291 -8.3222,-13.605607 -3.91884,-20.166233 4.51357,-6.724801 13.91051,-8.489407 20.60884,-3.981312 6.85019,4.610298 8.64519,14.192157 4.04068,21.018259 -4.69993,6.967558 -14.45423,8.791146 -21.39966,4.097183 -1.13364,-0.766153 -2.16492,-1.682506 -3.05946,-2.717832"
           transform="translate(-0.91491309,870.53235)" />
      </g>
      <path
         transform="translate(0,872.36218)"
         d="m 387.83845,79.635414 c -10.16729,-13.100961 -6.6477,-32.378703 6.49828,-42.031489 14.3725,-10.553397 35.05321,-6.678183 45.31603,7.67435 10.94831,15.31118 6.79142,37.125675 -8.48072,47.877316 -16.06894,11.312589 -38.83653,6.925649 -50.00241,-9.098204 -11.64427,-16.710384 -7.06279,-40.303344 9.60112,-51.831341 17.26981,-11.947156 41.59312,-7.196739 53.44426,10.027082 12.22549,17.767863 7.3254,42.747936 -10.39774,54.891764 -18.21804,12.482938 -43.79609,7.448198 -56.20803,-10.726674 -12.72253,-18.629687 -7.5652,-44.757593 11.02297,-57.41733 19.00958,-12.946747 45.64714,-7.676715 58.53758,11.292982 13.15756,19.362805 7.7831,46.475907 -11.54138,59.582411 -3.15416,2.139259 -6.59089,3.858429 -10.19383,5.100849"
         sodipodi:t0="0.13827787"
         sodipodi:argument="-19.108475"
         sodipodi:radius="43.39814"
         sodipodi:revolution="3.24"
         sodipodi:expansion="0.20999999"
         sodipodi:cy="63.806038"
         sodipodi:cx="411.71088"
         id="path6392"
         style="fill:none;stroke:#000000;stroke-width:1px;stroke-linecap:butt;stroke-linejoin:miter;stroke-opacity:1"
         sodipodi:type="spiral" />
    </g>
    <path
       style="fill:#ffffff;fill-opacity:1;stroke:#000000;stroke-width:1.07260597;stroke-miterlimit:4;stroke-opacity:1;stroke-dasharray:none"
       id="path6416"
       d="m 486.43291,938.75957 c -0.073,2.2979 0.031,4.58014 0.37871,6.8535 0.41169,2.78696 1.26097,5.48762 2.21858,8.1355 0.51753,1.3419 0.96195,2.70769 1.39532,4.07711 0.048,0.0744 -3.53556,2.29107 -3.58364,2.21673 l 0,0 c -0.4288,-1.3649 -0.86855,-2.72628 -1.38567,-4.06241 -0.97327,-2.66838 -1.83451,-5.3923 -2.26186,-8.20133 -0.3695,-2.2887 -0.49112,-4.58776 -0.41797,-6.90432 -0.0459,-0.0759 3.61065,-2.19064 3.65653,-2.11478 z"
       inkscape:connector-curvature="0"
       inkscape:export-filename="/home/joe/Desktop/logo_new.png"
       inkscape:export-xdpi="51.355053"
       inkscape:export-ydpi="51.355053" />
    <path
       style="fill:#ffffff;fill-opacity:1;stroke:#000000;stroke-width:1.07260597;stroke-miterlimit:4;stroke-opacity:1;stroke-dasharray:none"
       id="path6418"
       d="m 489.92585,957.86086 c 0.26772,-2.41093 1.19521,-4.64468 2.25147,-6.81356 0.8771,-1.86516 1.92816,-3.64227 2.94404,-5.43628 -0.0418,-0.0779 3.71121,-2.00542 3.75302,-1.92756 l 0,0 c -1.01035,1.79187 -2.07993,3.55413 -2.95402,5.41611 -1.06966,2.12651 -2.04327,4.32294 -2.30223,6.70553 0.0446,0.0767 -3.64769,2.13236 -3.69228,2.05576 z"
       inkscape:connector-curvature="0"
       inkscape:export-filename="/home/joe/Desktop/logo_new.png"
       inkscape:export-xdpi="51.355053"
       inkscape:export-ydpi="51.355053" />
    <path
       style="fill:#ffffff;fill-opacity:1;stroke:#000000;stroke-width:1.07260597;stroke-miterlimit:4;stroke-opacity:1;stroke-dasharray:none"
       id="path6422"
       d="m 497.8968,942.78415 c 0.78758,2.09069 1.62285,4.15447 2.52931,6.19874 1.27735,2.58176 2.36756,5.24411 3.48602,7.89343 0.79073,1.94113 0.3846,0.97244 1.21866,2.90596 0.0488,0.0738 -3.51066,2.32497 -3.55949,2.25113 l 0,0 c -0.83882,-1.93884 -0.43211,-0.96927 -1.22068,-2.90849 -1.1199,-2.64603 -2.20338,-5.30863 -3.48377,-7.88635 -0.91149,-2.05484 -1.75406,-4.12766 -2.55551,-6.22546 -0.0483,-0.0744 3.53712,-2.30334 3.58546,-2.22896 z"
       inkscape:connector-curvature="0"
       inkscape:export-filename="/home/joe/Desktop/logo_new.png"
       inkscape:export-xdpi="51.355053"
       inkscape:export-ydpi="51.355053" />
    <path
       style="fill:#ffffff;fill-opacity:1;stroke:#000000;stroke-width:1.07260597;stroke-miterlimit:4;stroke-opacity:1;stroke-dasharray:none"
       id="path6424"
       d="m 513.24352,938.74006 c -0.91541,2.11504 -1.55051,4.3264 -2.2297,6.52082 -1.00865,3.01019 -2.17811,5.95881 -3.04958,9.01241 -0.63519,2.24953 -0.29912,1.12033 -1.00974,3.38719 0.0434,0.077 -3.66669,2.07837 -3.71011,2.00141 l 0,0 c 0.71922,-2.25442 0.3814,-1.12923 1.015,-3.37511 0.84912,-3.0629 2.00853,-6.0158 3.04269,-9.02026 0.67442,-2.19555 1.2827,-4.42001 2.21684,-6.52758 -0.0434,-0.0773 3.68124,-2.07614 3.7246,-1.99888 z"
       inkscape:connector-curvature="0"
       inkscape:export-filename="/home/joe/Desktop/logo_new.png"
       inkscape:export-xdpi="51.355053"
       inkscape:export-ydpi="51.355053" />
    <path
       style="fill:#cfcfcf;fill-opacity:1;stroke:#000000;stroke-width:1.40191603;stroke-miterlimit:4;stroke-opacity:1;stroke-dasharray:none"
       d="m 474.25595,1003.0539 c -10.41318,-3.39094 -15.10541,-5.92818 -22.52276,-12.17897 -10.79993,-9.10125 -19.94784,-26.05457 -19.99079,-37.04781 -0.0239,-6.11533 3.32947,-3.69582 4.54735,3.28103 1.60135,9.17347 7.6858,20.11854 15.35163,27.61538 16.95987,16.58597 43.53468,21.06067 64.78655,10.90885 9.38093,-4.4811 21.01098,-16.1724 25.58643,-25.72109 3.36471,-7.02201 3.83188,-9.68977 3.83188,-21.88204 0,-12.89917 -0.33146,-14.54413 -4.66826,-23.16647 -9.05717,-18.00733 -25.30983,-27.74753 -46.54019,-27.89146 -10.18593,-0.0691 -12.58149,0.43549 -20.75748,4.37178 -10.77981,5.18987 -18.30126,12.75435 -23.53133,23.66586 -3.05868,6.38138 -3.73476,9.79868 -3.73567,18.88248 -9.6e-4,9.36425 0.62205,12.33212 4.00161,19.06267 2.20152,4.38441 4.59376,7.97166 5.3161,7.97166 1.92793,0 1.62572,-1.21588 -1.3251,-5.33149 -4.59968,-6.41526 -6.24794,-13.82152 -5.56472,-25.00423 1.01808,-16.66327 9.56425,-29.44411 24.7052,-36.94668 7.38046,-3.65712 9.72892,-4.11599 21.06518,-4.11599 10.86478,0 13.9574,0.5495 20.83419,3.70187 20.52478,9.40871 32.04101,31.05214 28.03066,52.68035 -3.16411,17.06431 -14.10884,31.31692 -29.44829,38.34864 -7.06423,3.23828 -9.85081,3.70196 -22.25181,3.70196 -12.94006,0 -14.97987,-0.37595 -23.3909,-4.30958 -11.66535,-5.4557 -20.39754,-14.00313 -26.04865,-25.49759 -4.05242,-8.24268 -4.43038,-10.19419 -4.43038,-22.87522 0,-12.68922 0.38006,-14.64832 4.48611,-23.12422 5.86253,-12.1017 14.35824,-20.93538 25.11505,-26.11421 27.50757,-13.2434 59.58684,-4.532 76.17465,20.68586 9.92398,15.08706 11.17177,37.56727 3.02966,54.58294 -6.24967,13.06083 -16.3299,23.05092 -29.0765,28.81652 -8.82395,3.9913 -12.05639,4.7011 -23.02379,5.0556 -9.48466,0.3067 -14.75944,-0.2389 -20.55563,-2.1264 z m 35.58983,-34.51435 c 11.68418,-6.74985 15.32033,-22.56997 7.75663,-33.74752 -4.18529,-6.18496 -12.86114,-10.94217 -19.95557,-10.94217 -6.38539,0 -15.45744,4.58883 -19.18023,9.70175 -8.9319,12.26716 -1.97435,34.02475 12.09208,37.81422 4.63381,1.24835 14.81684,-0.24385 19.28709,-2.82628 z"
       id="path12808"
       inkscape:connector-curvature="0"
       inkscape:export-filename="/home/joe/Desktop/logo_new.png"
       inkscape:export-xdpi="51.355053"
       inkscape:export-ydpi="51.355053" />
    <path
       style="fill:#cfcfcf;fill-opacity:1;stroke:#000000;stroke-width:1.40191603;stroke-miterlimit:4;stroke-opacity:1;stroke-dasharray:none"
       d="m 479.21766,996.0847 c -13.60583,-2.43061 -28.09738,-13.88299 -35.62441,-28.15321 -3.56674,-6.76204 -3.90494,-8.72494 -3.9032,-22.65368 0.002,-14.36734 0.25952,-15.74128 4.45235,-23.73428 8.43818,-16.08611 22.24717,-26.07736 41.01177,-29.67334 23.45445,-4.49473 50.3964,9.32206 60.88811,31.22559 1.82619,3.81253 3.32657,8.02366 3.33419,9.35804 0.0274,4.79973 -2.63199,2.26354 -6.8335,-6.51696 -8.88599,-18.57027 -24.02757,-28.34543 -45.78604,-29.55869 -11.94303,-0.66595 -13.02248,-0.48317 -21.63494,3.66326 -11.47263,5.52344 -20.02058,13.82136 -25.17719,24.44072 -3.34917,6.89724 -4.0394,10.13412 -4.04033,18.94775 -10e-4,10.85264 3.12206,21.05776 8.08665,26.4234 4.17914,4.51674 4.62365,0.93305 0.77669,-6.26191 -7.40301,-13.84587 -5.52677,-34.45439 4.26085,-46.8011 2.52728,-3.18808 8.30454,-8.02664 12.83833,-10.75237 7.94357,-4.77566 8.74243,-4.95732 21.97325,-4.99655 11.8448,-0.0352 14.80056,0.44982 21.52697,3.53175 19.49453,8.93213 30.75276,29.7542 27.0882,50.09961 -2.9981,16.64524 -13.2089,30.76665 -27.36781,37.84939 -7.30206,3.65274 -25.33828,5.44414 -35.86994,3.56258 z m 29.67704,-26.52474 c 10.60652,-5.06465 16.05425,-18.23779 12.22937,-29.57181 -3.51145,-10.40525 -18.37278,-19.02247 -28.10081,-16.29402 -12.63913,3.54495 -18.76731,10.97484 -18.76731,22.75377 0,9.97601 2.41571,15.68124 9.05275,21.38019 4.44044,3.8128 6.315,4.48407 12.52226,4.48407 4.40119,0 9.58882,-1.0929 13.06374,-2.7522 z"
       id="path12810"
       inkscape:connector-curvature="0"
       inkscape:export-filename="/home/joe/Desktop/logo_new.png"
       inkscape:export-xdpi="51.355053"
       inkscape:export-ydpi="51.355053" />
    <path
       style="fill:#cfcfcf;fill-opacity:1;stroke:#000000;stroke-width:1.4020493;stroke-miterlimit:4;stroke-opacity:1;stroke-dasharray:none"
       d="m 475.50671,994.06289 c -8.12402,-2.99171 -14.52037,-7.34466 -21.4714,-14.61203 -9.47528,-9.90655 -12.07148,-15.77919 -12.62354,-28.55481 -0.62994,-14.57778 2.10619,-15.58003 4.12492,-1.51095 1.55302,10.82345 5.2317,19.61115 9.24627,22.08765 4.01711,2.47807 4.39801,-0.22188 1.0994,-7.79279 -4.37563,-10.04283 -5.28659,-23.41365 -2.28347,-33.51625 2.74378,-9.23023 10.53791,-18.37799 20.57552,-24.14899 5.9319,-3.41046 7.63636,-3.70087 20.818,-3.54691 12.777,0.14926 15.14044,0.5846 21.47436,3.95596 18.52511,9.86036 28.52474,29.49968 24.56535,48.24655 -3.65987,17.32867 -14.00034,31.24867 -27.5605,37.10101 -8.79008,3.79362 -30.35184,5.09512 -37.96491,2.29156 z m 27.14382,-21.88906 c 10.00544,-2.09848 16.37426,-7.83011 19.17689,-17.25832 3.77514,-12.69973 -1.41381,-23.65986 -14.02902,-29.63215 -7.82519,-3.7046 -14.40894,-3.61788 -21.45068,0.2825 -10.58657,5.86385 -15.1058,17.13633 -11.88501,29.64524 1.85305,7.19694 10.13844,16.47178 15.62811,17.49448 1.81672,0.33844 3.75018,0.70032 4.29657,0.80415 0.54639,0.10379 4.26481,-0.49731 8.26314,-1.3359 z"
       id="path12812"
       inkscape:connector-curvature="0"
       inkscape:export-filename="/home/joe/Desktop/logo_new.png"
       inkscape:export-xdpi="51.355053"
       inkscape:export-ydpi="51.355053" />
    <path
       style="fill:#cfcfcf;fill-opacity:1;stroke:#000000;stroke-width:0.64137661;stroke-miterlimit:4;stroke-opacity:1;stroke-dasharray:none"
       d="m 508.76673,951.08904 c -0.0308,-0.73075 0.13682,-1.14015 0.37229,-0.90981 0.23554,0.23034 0.26071,0.82821 0.0559,1.32861 -0.22627,0.55298 -0.39423,0.38872 -0.42825,-0.4188 z"
       id="path13234"
       inkscape:connector-curvature="0"
       inkscape:export-filename="/home/joe/Desktop/logo_new.png"
       inkscape:export-xdpi="51.355053"
       inkscape:export-ydpi="51.355053" />
    <path
       style="fill:#cfcfcf;fill-opacity:1;stroke:#000000;stroke-width:0.64137661;stroke-miterlimit:4;stroke-opacity:1;stroke-dasharray:none"
       d="m 508.76673,951.08904 c -0.0308,-0.73075 0.13682,-1.14015 0.37229,-0.90981 0.23554,0.23034 0.26071,0.82821 0.0559,1.32861 -0.22627,0.55298 -0.39423,0.38872 -0.42825,-0.4188 z"
       id="path13236"
       inkscape:connector-curvature="0"
       inkscape:export-filename="/home/joe/Desktop/logo_new.png"
       inkscape:export-xdpi="51.355053"
       inkscape:export-ydpi="51.355053" />
    <path
       style="fill:#cfcfcf;fill-opacity:1;stroke:#000000;stroke-width:0.64137661;stroke-miterlimit:4;stroke-opacity:1;stroke-dasharray:none"
       d="m 508.71078,945.48577 c 0,-0.57189 0.31896,-1.03979 0.7088,-1.03979 0.38987,0 0.70882,0.4679 0.70882,1.03979 0,0.57188 -0.31895,1.03977 -0.70882,1.03977 -0.38984,0 -0.7088,-0.46789 -0.7088,-1.03977 z"
       id="path13238"
       inkscape:connector-curvature="0"
       inkscape:export-filename="/home/joe/Desktop/logo_new.png"
       inkscape:export-xdpi="51.355053"
       inkscape:export-ydpi="51.355053" />
    <path
       style="fill:#cfcfcf;fill-opacity:1;stroke:#000000;stroke-width:0.64137661;stroke-miterlimit:4;stroke-opacity:1;stroke-dasharray:none"
       d="m 505.32914,955.40702 c 0.15433,-0.45273 0.65956,-0.94671 1.12278,-1.09771 0.51795,-0.16885 0.67637,0.14805 0.41146,0.82316 -0.49441,1.26003 -1.95949,1.52219 -1.53424,0.27455 z"
       id="path13242"
       inkscape:connector-curvature="0"
       inkscape:export-filename="/home/joe/Desktop/logo_new.png"
       inkscape:export-xdpi="51.355053"
       inkscape:export-ydpi="51.355053" />
    <path
       style="fill:#f7f7f7;fill-opacity:1;stroke:#000000;stroke-width:0.64203131;stroke-miterlimit:4;stroke-opacity:1;stroke-dasharray:0.6420313, 0.6420313;stroke-dashoffset:0"
       id="path17844"
       d="m 485.80876,942.3166 c -0.002,0.56781 -0.002,1.13562 -0.003,1.70344 0.02,0.81709 0.13124,1.62691 0.24035,2.43595 0.1362,0.875 0.34316,1.73789 0.59907,2.5863 0.28875,1.00197 0.61627,1.99154 0.94205,2.98234 0.36501,1.16541 0.6861,2.34279 0.98799,3.52514 0.0477,0.19913 0.0954,0.39824 0.14317,0.59737 0.0288,0.0523 -2.49,1.37929 -2.51879,1.32703 l 0,0 c -0.0469,-0.19793 -0.0939,-0.39587 -0.14085,-0.5938 -0.29881,-1.17678 -0.61845,-2.34814 -0.97979,-3.50822 -0.32597,-0.9926 -0.65996,-1.9821 -0.94706,-2.98645 -0.26484,-0.86075 -0.47656,-1.73693 -0.62126,-2.62501 -0.11079,-0.82022 -0.22774,-1.63992 -0.25917,-2.46784 -3.5e-4,-0.56693 -7.3e-4,-1.1339 -0.003,-1.70084 -0.0277,-0.053 2.53188,-1.32852 2.55956,-1.27541 z"
       inkscape:connector-curvature="0"
       inkscape:export-filename="/home/joe/Desktop/logo_new.png"
       inkscape:export-xdpi="51.355053"
       inkscape:export-ydpi="51.355053" />
    <path
       style="fill:#0e0e0e;fill-opacity:1;stroke:#000000;stroke-width:0.64203131;stroke-miterlimit:4;stroke-opacity:1;stroke-dasharray:0.6420313, 0.6420313;stroke-dashoffset:0"
       id="path17862"
       d="m 485.4492,940.188 c -0.0225,0.4936 0.0225,0.98368 0.0714,1.47428 0.0717,0.77316 0.19679,1.54039 0.29164,2.31106 0.11482,0.87036 0.2748,1.73291 0.43884,2.5953 0.15433,0.80675 0.32023,1.61259 0.50507,2.41331 0.19736,0.79587 0.41837,1.58512 0.59386,2.38614 0.20783,0.81077 0.35271,1.63446 0.52698,2.45209 0.14999,0.77193 0.35472,1.53006 0.58447,2.28235 0.23794,0.73999 0.53488,1.45898 0.83154,2.17768 0.0296,0.0518 -2.46991,1.4178 -2.49954,1.36595 l 0,0 c -0.29948,-0.72684 -0.60141,-1.45299 -0.84438,-2.20042 -0.23244,-0.75932 -0.44594,-1.52299 -0.5952,-2.30287 -0.17884,-0.81656 -0.31309,-1.64249 -0.52696,-2.45189 -0.17166,-0.80048 -0.39104,-1.58849 -0.59188,-2.38209 -0.19043,-0.80328 -0.35117,-1.61447 -0.50964,-2.42414 -0.16401,-0.86817 -0.32847,-1.73546 -0.44852,-2.61084 -0.0928,-0.77243 -0.21852,-1.5409 -0.29657,-2.31474 -0.0511,-0.49787 -0.11141,-0.99447 -0.0905,-1.4959 -0.0277,-0.053 2.53165,-1.32836 2.55931,-1.27527 z"
       inkscape:connector-curvature="0"
       inkscape:export-filename="/home/joe/Desktop/logo_new.png"
       inkscape:export-xdpi="51.355053"
       inkscape:export-ydpi="51.355053" />
    <path
       style="fill:#0e0e0e;fill-opacity:1;stroke:#000000;stroke-width:0.64203131;stroke-miterlimit:4;stroke-opacity:1;stroke-dasharray:0.6420313, 0.6420313;stroke-dashoffset:0"
       id="path17870"
       d="m 497.67848,944.32903 c 0.18543,0.41803 0.39243,0.82613 0.57106,1.24711 0.25245,0.59311 0.52339,1.17819 0.79049,1.76505 0.27838,0.66251 0.5905,1.31077 0.89234,1.96334 0.31513,0.67844 0.61591,1.36266 0.90766,2.05102 0.26298,0.69489 0.51658,1.39295 0.78405,2.08631 0.28998,0.6999 0.55206,1.40807 0.89477,2.08553 0.3929,0.69164 0.77519,1.38957 1.11564,2.10748 0.17552,0.34642 0.3313,0.70136 0.48331,1.05804 0.0298,0.0518 -2.4687,1.42036 -2.49837,1.36853 l 0,0 c -0.14952,-0.35373 -0.30295,-0.70566 -0.47758,-1.04846 -0.33756,-0.71639 -0.71963,-1.41164 -1.11162,-2.10082 -0.34869,-0.68522 -0.61611,-1.40084 -0.90933,-2.10971 -0.26599,-0.6908 -0.52242,-1.38466 -0.7796,-2.07852 -0.28965,-0.6859 -0.58955,-1.36712 -0.90314,-2.04283 -0.30303,-0.65271 -0.61494,-1.30185 -0.894,-1.96469 -0.26778,-0.58921 -0.54148,-1.17573 -0.79593,-1.77066 -0.17461,-0.41528 -0.38057,-0.81619 -0.56615,-1.22665 -0.0302,-0.0518 2.46625,-1.44187 2.4964,-1.39007 z"
       inkscape:connector-curvature="0"
       inkscape:export-filename="/home/joe/Desktop/logo_new.png"
       inkscape:export-xdpi="51.355053"
       inkscape:export-ydpi="51.355053" />
    <flowRoot
       xml:space="preserve"
       id="flowRoot18718"
       style="fill:black;stroke:none;stroke-opacity:1;stroke-width:1px;stroke-linejoin:miter;stroke-linecap:butt;fill-opacity:1;font-family:Type Keys Filled;font-style:normal;font-weight:normal;font-size:36px;line-height:125%;letter-spacing:0px;word-spacing:0px;-inkscape-font-specification:Type Keys Filled;font-stretch:normal;font-variant:normal"><flowRegion
         id="flowRegion18720"><rect
           id="rect18722"
           width="134.7739"
           height="47.32164"
           x="501.98056"
           y="121.54385" /></flowRegion><flowPara
         id="flowPara18724"></flowPara></flowRoot>    <path
       style="fill:#fefefe;fill-opacity:1;stroke:#000000;stroke-width:1.25306165;stroke-miterlimit:4;stroke-opacity:1;stroke-dasharray:none;stroke-dashoffset:0.90089998"
       id="path19944"
       d="m 495.73568,906.79638 c -0.39653,1.07685 -0.77648,2.15934 -1.14487,3.247 -0.57309,1.68573 -1.25545,3.32812 -1.97804,4.95053 -0.57129,1.33864 -1.20693,2.6453 -1.87187,3.93656 0.0547,0.12583 -5.69757,2.78751 -5.75233,2.66167 l 0,0 c 0.67664,-1.27592 1.32556,-2.56847 1.88996,-3.90205 0.72721,-1.60279 1.41799,-3.2234 1.99991,-4.88927 0.3617,-1.08218 0.70718,-2.17036 1.12804,-3.23009 -0.0572,-0.12532 5.67212,-2.89967 5.7292,-2.77435 z"
       inkscape:connector-curvature="0" />
    <path
       style="fill:#fefefe;fill-opacity:1;stroke:#000000;stroke-width:1.00973558;stroke-miterlimit:4;stroke-opacity:1;stroke-dasharray:none;stroke-dashoffset:0.90089998"
       id="path19946"
       d="m 496.52642,905.17018 c 0.31727,0.69613 0.66342,1.37531 1.01863,2.04979 0.51671,1.01159 0.96264,2.06094 1.44134,3.09308 0.45428,1.02956 0.97655,2.02154 1.47338,3.02741 0.4648,0.89256 0.87145,1.81927 1.35889,2.6979 0.33991,0.6231 0.81496,0.98546 1.46506,0.67849 1.56656,-1.07396 -0.28179,0.19927 -3.78471,2.28929 -0.10236,0.0611 0.19469,-0.1407 0.28443,-0.22156 0.2994,-0.26971 0.54001,-0.60646 0.78316,-0.93185 0.53573,-0.74192 1.02792,-1.51492 1.45762,-2.33271 0.47637,-0.95699 0.95041,-1.9153 1.42847,-2.87133 0.47238,-0.94951 0.92465,-1.91013 1.43039,-2.8398 0.3572,-0.65546 0.74454,-1.29034 1.14168,-1.91826 -0.0421,-0.10423 4.52137,-2.2427 4.5635,-2.13851 l 0,0 c -0.40322,0.61506 -0.79896,1.23612 -1.15319,1.88582 -0.52404,0.91375 -0.98015,1.86683 -1.44028,2.81908 -0.48494,0.95086 -0.95245,1.91172 -1.42651,2.86893 -0.4072,0.84878 -0.8812,1.65136 -1.42544,2.40686 -1.37971,2.08199 -3.37048,3.73536 -5.84194,4.21368 -0.81278,-0.0181 -1.38345,-0.46806 -1.79197,-1.22166 -0.48988,-0.88739 -0.90258,-1.82036 -1.36948,-2.72179 -0.49739,-1.01052 -1.02234,-2.00597 -1.47752,-3.03994 -0.47568,-1.02316 -0.91797,-2.06378 -1.43122,-3.06657 -0.35418,-0.66988 -0.70212,-1.34308 -1.02382,-2.03175 -0.0531,-0.0986 4.26642,-2.79322 4.31953,-2.6946 z"
       inkscape:connector-curvature="0" />
    <path
       style="fill:#fefefe;fill-opacity:1;stroke:#000000;stroke-width:1.02515507;stroke-miterlimit:4;stroke-opacity:1;stroke-dasharray:none;stroke-dashoffset:0.90089998"
       id="path19948"
       d="m 457.8252,939.29334 c 0.43431,0.53343 0.84445,1.09582 1.26691,1.64354 0.6255,0.80825 1.23152,1.64253 1.81855,2.49549 0.68619,1.0002 1.35745,2.0158 2.06137,2.99632 0.58863,0.86445 1.05331,1.71749 2.0014,1.85753 0.0918,-0.0108 0.18475,-0.0111 0.27536,-0.0325 0.17676,-0.0419 0.354,-0.12905 0.5092,-0.24287 0.0769,-0.0564 0.29661,-0.24772 0.21909,-0.19253 -3.61272,2.57241 -4.97534,3.76945 -3.53936,2.52053 0.52304,-0.52972 0.85998,-1.27155 1.22175,-1.96931 0.54262,-1.01989 1.09669,-2.02702 1.60581,-3.07452 0.50908,-0.99789 0.8646,-2.09393 1.1623,-3.2141 0.27523,-1.09202 0.41527,-2.22572 0.53843,-3.35769 0.11959,-1.17864 0.17855,-2.36519 0.23209,-3.55094 0.008,-0.18775 0.0151,-0.3755 0.0226,-0.56325 -0.0446,-0.11156 4.12868,-2.75862 4.17323,-2.64705 l 0,0 c -0.007,0.1889 -0.0145,0.3778 -0.0217,0.5667 -0.0515,1.19864 -0.10872,2.39778 -0.216,3.59091 -0.11765,1.16106 -0.24967,2.32355 -0.50189,3.45258 -0.28281,1.15781 -0.61587,2.30312 -1.11818,3.34235 -0.50735,1.05049 -1.02732,2.08679 -1.59784,3.0852 -0.36627,0.72883 -0.71268,1.4805 -1.16231,2.1332 -1.36656,1.69693 -0.26479,0.37194 -4.45046,3.37167 -0.35413,0.25379 -0.81181,0.21659 -1.19433,0.14078 -0.93202,-0.36574 -1.54918,-1.23278 -2.15173,-2.16854 -0.70433,-0.98466 -1.37854,-2.00184 -2.06768,-3.00334 -0.58594,-0.84161 -1.18615,-1.66901 -1.80944,-2.46693 -0.41927,-0.54863 -0.83513,-1.10109 -1.27144,-1.62862 -0.052,-0.10678 3.94232,-3.19135 3.99425,-3.08457 z"
       inkscape:connector-curvature="0" />
    <path
       style="fill:#fefefe;fill-opacity:1;stroke:#000000;stroke-width:0.97460574;stroke-miterlimit:4;stroke-opacity:1;stroke-dasharray:none;stroke-dashoffset:0.90089998"
       id="path19950"
       d="m 466.56213,949.68426 c 0.1097,0.77071 0.23464,1.53905 0.37438,2.30454 0.20977,0.97036 0.48738,1.92395 0.76688,2.87479 0.24156,0.89407 0.50331,1.78228 0.72684,2.6815 0.10386,0.42139 0.1818,0.84864 0.25866,1.27595 0.0488,0.0951 -4.27415,2.48317 -4.32298,2.38804 l 0,0 c -0.0714,-0.41704 -0.14374,-0.83405 -0.24206,-1.24543 -0.21617,-0.89357 -0.47932,-1.77337 -0.71432,-2.66164 -0.28401,-0.96798 -0.56642,-1.93789 -0.79225,-2.92249 -0.1421,-0.76753 -0.27262,-1.53735 -0.39082,-2.3089 -0.0488,-0.0954 4.28688,-2.48178 4.33567,-2.38636 z"
       inkscape:connector-curvature="0" />
    <path
       style="fill:#fefefe;fill-opacity:1;stroke:#000000;stroke-width:0.95685172;stroke-miterlimit:4;stroke-opacity:1;stroke-dasharray:none;stroke-dashoffset:0.90089998"
       id="path19962"
       d="m 532.39849,954.53848 c -0.22065,-0.43067 -0.63205,-0.77132 -1.06807,-1.09454 -0.5458,-0.38941 -1.22724,-0.627 -1.9357,-0.81878 -0.72767,-0.21066 -1.43884,-0.1536 -2.1399,0.0686 -1.8193,0.8323 -0.0108,4.7e-4 4.33984,-1.78161 0.10321,-0.0424 -0.20224,0.0896 -0.29813,0.13998 -0.30747,0.16136 -0.56659,0.3532 -0.82233,0.55458 -0.61044,0.53486 -1.03994,1.15826 -1.45554,1.77878 -0.47114,0.78967 -0.83319,1.61275 -1.17813,2.43524 -0.38306,0.93729 -0.60102,1.9028 -0.78989,2.86873 -0.20639,0.9381 -0.25879,1.88389 -0.26177,2.83188 -0.009,0.90471 0.11853,1.80617 0.20719,2.70767 0.13131,0.92992 0.23669,1.86247 0.4556,2.78416 0.17757,0.82529 0.50528,1.6175 1.08344,2.34115 0.49188,0.54985 1.1504,0.91807 2.07328,0.88889 0.43337,-0.0564 0.87675,-0.13641 1.27115,-0.28366 0.13992,-0.0523 0.53621,-0.23884 0.39916,-0.18275 -4.43749,1.81562 -5.95868,2.59126 -4.11948,1.66834 0.79765,-0.45585 1.4323,-1.03667 1.97032,-1.65585 0.5154,-0.64095 0.93453,-1.31949 1.33002,-2.00267 0.33094,-0.7005 0.74462,-1.37222 1.24253,-2.01824 -0.0495,-0.0808 5.20966,-1.77354 5.2593,-1.69282 l 0,0 c -0.52025,0.62137 -0.9815,1.26621 -1.2755,1.96416 -0.37896,0.70132 -0.80585,1.39149 -1.29757,2.05527 -0.49052,0.67109 -1.13136,1.27396 -1.88191,1.80541 -1.92295,1.18834 -0.48982,0.3308 -5.71987,2.48252 -0.55735,0.22931 -1.24047,0.29006 -1.86761,0.27951 -1.03085,-0.14931 -1.81235,-0.57833 -2.36962,-1.22601 -0.60745,-0.76555 -0.9865,-1.59567 -1.17543,-2.469 -0.23817,-0.93379 -0.33945,-1.87974 -0.48537,-2.82281 -0.0872,-0.91062 -0.21953,-1.82083 -0.22398,-2.73419 -0.002,-0.96429 0.018,-1.9278 0.22651,-2.88296 0.18282,-0.98333 0.38941,-1.96672 0.75191,-2.92526 0.33575,-0.83905 0.71095,-1.67138 1.1387,-2.48801 0.39389,-0.64965 0.8386,-1.287 1.3917,-1.87426 1.57299,-1.5509 4.23352,-2.42825 6.6367,-3.09936 0.81461,-0.12587 1.60276,-0.0825 2.37186,0.1656 0.76179,0.23763 1.48449,0.53035 2.06687,0.96665 0.48831,0.37256 0.93143,0.77177 1.20396,1.25165 0.0592,0.0777 -4.99519,2.09145 -5.05424,2.01391 z"
       inkscape:connector-curvature="0" />
  </g>
</svg>
