<?xml version="1.0" encoding="UTF-8" standalone="no"?>
<!-- Created with Inkscape (http://www.inkscape.org/) -->

<svg
   xmlns:dc="http://purl.org/dc/elements/1.1/"
   xmlns:cc="http://creativecommons.org/ns#"
   xmlns:rdf="http://www.w3.org/1999/02/22-rdf-syntax-ns#"
   xmlns:svg="http://www.w3.org/2000/svg"
   xmlns="http://www.w3.org/2000/svg"
   xmlns:sodipodi="http://sodipodi.sourceforge.net/DTD/sodipodi-0.dtd"
   xmlns:inkscape="http://www.inkscape.org/namespaces/inkscape"
   width="468px"
   height="60px"
   id="svg3039"
   version="1.1"
   inkscape:version="0.48.3.1 r9886"
   sodipodi:docname="New document 6">
  <defs
     id="defs3041" />
  <sodipodi:namedview
     id="base"
     pagecolor="#ffffff"
     bordercolor="#666666"
     borderopacity="1.0"
     inkscape:pageopacity="0.0"
     inkscape:pageshadow="2"
     inkscape:zoom="1.2"
     inkscape:cx="234"
     inkscape:cy="30"
     inkscape:document-units="px"
     inkscape:current-layer="layer1"
     showgrid="false"
     inkscape:window-width="1226"
     inkscape:window-height="1000"
     inkscape:window-x="54"
     inkscape:window-y="24"
     inkscape:window-maximized="1" />
  <metadata
     id="metadata3044">
    <rdf:RDF>
      <cc:Work
         rdf:about="">
        <dc:format>image/svg+xml</dc:format>
        <dc:type
           rdf:resource="http://purl.org/dc/dcmitype/StillImage" />
        <dc:title></dc:title>
      </cc:Work>
    </rdf:RDF>
  </metadata>
  <g
     id="layer1"
     inkscape:label="Layer 1"
     inkscape:groupmode="layer">
    <path
       style="fill:#130000;fill-opacity:1;stroke:#000000;stroke-opacity:1"
       id="path3049"
       d="m -1.5207548,38.177502 c 1.02682988,-2.057166 2.31980157,-3.943049 3.7395418,-5.744385 1.5040618,-1.84257 3.132334,-3.573249 4.9343889,-5.124974 3.0169471,-2.43115 6.3602531,-4.715161 10.0756681,-5.885078 1.820058,-0.745126 3.735548,-1.12937 5.682067,-1.336154 1.230741,-0.226352 2.348336,0.183573 3.496496,0.558056 0,0 -4.784304,3.259107 -4.784304,3.259107 l 0,0 c -1.110797,-0.332287 -2.186932,-0.590742 -3.354469,-0.359907 -1.922795,0.252205 -3.797489,0.70894 -5.601168,1.43457 -1.957535,0.763194 -5.2345486,2.85699 2.37465,-1.601366 0.27883,-0.163371 -0.574686,0.297417 -0.848277,0.469417 -0.721449,0.453555 -1.025922,0.745776 -1.684273,1.29448 -1.820575,1.515389 -3.4749774,3.195034 -4.9838204,5.024822 -1.4307468,1.758281 -2.7886372,3.589045 -3.740238,5.659598 0,0 -5.3062624,2.351814 -5.3062624,2.351814 z"
       inkscape:connector-curvature="0" />
    <path
       style="fill:#130000;fill-opacity:1;stroke:#000000;stroke-opacity:1"
       id="path3051"
       d="m 28.722156,18.854307 c 2.611869,-1.198688 3.893614,-2.242117 6.903588,-1.873974 2.248794,0.402238 3.678593,2.34442 5.781289,3.02736 0.236757,1.53e-4 0.482259,0.06421 0.710273,4.59e-4 0.233731,-0.06535 0.838311,-0.489203 0.62484,-0.373743 -1.430787,0.773865 -2.813249,1.640305 -4.277297,2.349236 -0.287547,0.139238 0.496645,-0.403655 0.723649,-0.628466 0.161657,-0.160097 1.246658,-1.423812 1.357399,-1.55204 2.064667,-1.890383 4.977326,-5.363309 7.877767,-4.333961 0.559183,0.19845 1.115927,0.714105 1.560072,1.071788 1.66189,1.521538 2.971677,3.361346 4.931982,4.517587 0.264667,0.06285 0.52247,0.172132 0.794002,0.18856 0.540273,0.03269 1.059634,-0.167743 1.526555,-0.409859 0.269726,-0.139862 1.041487,-0.625569 0.774308,-0.480903 -4.029705,2.181917 -5.498155,3.268831 -3.313394,1.718277 3.046068,-2.062221 6.093018,-5.755502 10.014149,-5.049215 2.098325,1.056517 3.73318,2.775437 5.675629,4.067766 0.295256,0.117677 0.572118,0.301582 0.88577,0.353033 0.593323,0.09733 1.365023,-0.147013 1.890037,-0.371231 0.334102,-0.142685 1.280229,-0.68721 0.964776,-0.507009 -4.933893,2.818463 -5.099439,2.954182 -3.032601,1.616294 2.696244,-1.61345 5.265865,-4.692416 8.548329,-4.522887 0.754468,0.03897 1.089753,0.250087 1.775501,0.536227 1.932548,1.161907 3.590076,2.699267 5.529745,3.853842 2.232429,0.933668 4.34868,-0.546472 6.240681,-1.65367 3.208745,-1.798622 -1.949203,1.157237 -2.942052,1.703533 -0.325567,0.179137 0.629635,-0.395143 0.937002,-0.603972 0.87921,-0.597346 1.718996,-1.223491 2.625489,-1.780931 2.92277,-1.271741 6.592076,-4.588142 10.026126,-5.029988 2.09337,0.243368 3.28669,2.354464 4.47802,3.882655 1.40192,1.625064 2.5472,3.830938 4.75913,4.37059 1.02078,0.01269 1.86509,-0.427472 2.74582,-0.879191 0.31768,-0.162935 1.25908,-0.6731 0.95142,-0.491956 -1.32913,0.782558 -5.35139,3.070163 -4.01688,2.296832 1.94833,-1.129025 3.90555,-2.242618 5.85833,-3.363926 -1.35139,0.774384 -2.69119,1.569348 -4.05416,2.323151 -0.30511,0.168741 0.58511,-0.379343 0.87892,-0.567062 0.56815,-0.363001 1.13408,-0.729629 1.70789,-1.083619 2.16152,-1.333467 4.42109,-2.501103 6.63854,-3.739353 2.06791,-0.541313 3.77525,0.749405 5.40513,1.85061 1.55264,1.48551 2.92747,3.125087 4.85007,4.136299 1.81715,0.88361 3.5255,0.516818 5.39376,0.07015 2.23663,-0.63597 4.28777,-1.729272 6.44088,-2.57736 1.80652,-0.625906 3.61588,-1.233768 5.42869,-1.841036 0,0 -4.56911,3.553356 -4.56911,3.553356 l 0,0 c -1.80137,0.617365 -3.61765,1.18796 -5.39987,1.86091 -2.1439,0.890877 -4.23182,1.935261 -6.49667,2.502852 -1.97076,0.424639 -3.79935,0.576949 -5.64588,-0.407895 -1.88439,-1.092224 -3.282,-2.711762 -4.86462,-4.182588 -1.56799,-1.023574 -3.15047,-2.14928 -5.06793,-1.359173 1.37478,-0.813318 2.75454,-1.618286 4.12435,-2.439953 0.56694,-0.340078 -1.13764,0.674172 -1.69736,1.026009 -2.4905,1.565496 -4.8702,3.249199 -7.56976,4.506821 1.34434,-0.780399 5.38716,-3.104423 4.033,-2.341197 -0.72553,0.408919 -6.38715,4.29069 -8.87446,4.464509 -0.3286,0.02296 -0.6576,-0.03984 -0.98639,-0.05976 -2.21232,-0.849139 -3.48046,-2.896217 -4.93039,-4.672458 -1.06857,-1.36241 -2.18216,-3.428577 -4.141835,-3.34876 -2.260447,0.562945 -7.453663,3.860223 0.840675,-1.026761 0.28136,-0.165777 -0.565074,0.327536 -0.84761,0.491303 -1.262606,0.70386 -2.333615,1.649123 -3.570577,2.383343 -1.960431,1.163646 -3.940845,2.293313 -5.915529,3.432604 -0.337381,0.194652 -0.68036,0.379434 -1.020539,0.569151 -2.084348,1.136745 -4.271728,2.3834 -6.604614,1.160969 -1.884653,-1.172853 -3.526901,-2.692581 -5.477643,-3.75455 -0.66184,-0.210119 -0.901735,-0.361415 -1.606133,-0.29571 -0.276989,0.02584 -1.040972,0.349447 -0.812482,0.190755 7.622246,-5.293857 4.031554,-2.292121 2.276501,-1.242269 -2.587377,1.702219 -2.243387,1.500118 -6.871229,4.079402 -1.322342,0.736995 -2.775399,0.811072 -4.085523,0.03987 -1.842066,-1.274105 -3.430477,-2.979425 -5.530632,-3.826189 -2.261129,-0.07096 -4.528961,1.77955 2.557989,-2.285637 2.879274,-1.651598 -5.344394,3.375632 -2.47059,1.859774 -2.519721,1.785685 -1.355888,0.991968 -6.573511,4.033524 -1.116265,0.650714 -2.269214,0.763397 -3.446634,0.206696 -1.915491,-1.246562 -3.281814,-3.041998 -4.966137,-4.563588 -0.426204,-0.3095 -0.812711,-0.687225 -1.364895,-0.761751 -0.210519,-0.02841 -0.807981,0.191082 -0.633423,0.07003 7.952829,-5.51538 4.315025,-2.731047 2.777709,-1.381299 -2.33963,2.652803 -5.406077,6.328248 -9.262501,5.684498 -1.983631,-0.827333 -3.474141,-2.581917 -5.682274,-2.904937 -2.809504,-0.128158 -4.289992,1.079724 -6.78412,2.078529 0,0 4.581473,-3.559329 4.581473,-3.559329 z"
       inkscape:connector-curvature="0" />
    <path
       style="fill:#130000;fill-opacity:1;stroke:#000000;stroke-opacity:1"
       id="path3053"
       d="m 151.22216,18.020974 c 2.67042,-0.961453 5.21119,-2.234301 7.83635,-3.308673 2.39014,-1.087342 4.95002,-1.70379 7.41095,-2.594278 1.83947,-0.694464 3.77621,-1.02617 5.67277,-1.517379 1.71939,-0.495064 3.41844,-0.546908 5.17578,-0.334116 2.17449,0.530002 4.26459,1.385239 6.28519,2.33947 2.02839,0.878569 3.93844,2.006925 5.8425,3.123639 2.15371,1.284266 4.33293,2.542115 6.59114,3.635451 2.6888,1.236778 5.33108,2.581638 7.92453,4.007421 2.2958,1.276534 4.69209,2.361815 6.9453,3.713324 2.10711,1.188383 4.1159,2.544289 6.1434,3.862951 2.16892,1.41442 4.11992,3.117598 6.01447,4.873288 1.45828,1.414785 3.02683,2.704583 4.5823,4.009951 1.62408,1.342984 3.06019,2.892851 4.66814,4.251661 0.90537,0.712401 1.95617,1.168767 3.07254,0.637478 0.23097,-0.10992 0.87318,-0.53248 0.64832,-0.410551 -1.42801,0.774325 -2.83936,1.578962 -4.25904,2.368444 1.62515,-1.29866 2.80354,-3.055812 4.01419,-4.725775 1.32641,-2.105759 2.75179,-4.132226 4.29499,-6.083374 1.96602,-2.320953 4.252,-4.345602 6.54985,-6.329433 3.47999,-2.811541 7.47615,-4.898685 11.33101,-7.128205 -1.28775,0.740837 -5.14773,2.96899 -3.86325,2.222513 19.83904,-11.529408 -11.45893,6.703973 8.23219,-4.781347 1.29994,-0.758225 -2.59953,1.517535 -3.91538,2.247811 -0.33753,0.187322 0.6528,-0.412187 0.97921,-0.61828 3.45571,-2.137864 6.95914,-4.216534 10.59085,-6.041508 1.92672,-1.010161 3.90621,-1.926144 5.91723,-2.762371 0.85923,-0.391514 1.70708,-0.813093 2.56835,-1.198499 0.13676,-0.0612 0.54042,-0.245613 0.42264,-0.153007 -4.34799,3.41859 -3.30585,2.792091 -5.59716,4.102636 1.43639,-0.816769 2.86827,-1.641532 4.30918,-2.450308 0.24224,-0.135973 -0.47225,0.292882 -0.71287,0.431712 -1.93445,1.116119 -3.87331,2.224601 -5.81218,3.333031 -1.34118,0.766736 2.6772,-1.542474 4.0191,-2.307946 0.35366,-0.201742 -0.70509,0.407437 -1.05434,0.61673 -0.36586,0.219254 -0.72725,0.445894 -1.09088,0.668841 -3.74433,2.224236 -7.45049,4.534333 -11.44424,6.285709 -0.37796,0.180278 -0.75695,0.358398 -1.13387,0.540835 -0.33316,0.161258 -2.14668,1.053113 -2.44031,1.20696 -0.42002,0.220078 -1.65705,0.922806 -1.24643,0.685635 7.68748,-4.440288 3.88536,-2.211467 2.61247,-1.462799 -2.26493,1.31606 -4.47231,2.710663 -6.60876,4.226151 -2.0313,1.458995 -3.875,3.151099 -5.68363,4.872019 -1.51187,1.504345 -2.74211,3.242174 -3.99399,4.958269 0.72874,-0.445346 -0.72364,0.8359 -0.39951,0.943976 0.0827,0.02758 0.0604,-0.168757 0.11989,-0.232496 0.11744,-0.125815 0.55261,-0.406679 0.40089,-0.325399 -3.02377,1.620009 -6.03014,3.467523 -3.59239,1.97957 2.10933,-1.270873 3.91077,-2.956838 5.69968,-4.630703 2.07917,-1.936698 4.02317,-4.013268 6.11475,-5.935874 1.82812,-1.681164 3.81285,-3.173529 5.81981,-4.631533 3.7586,-2.682749 7.81201,-4.872258 11.81481,-7.165452 3.45748,-1.320238 9.29972,-5.791963 -0.54071,1.493286 -2.13574,1.068443 -4.345,1.989267 -6.48032,3.06703 3.12062,-1.64448 -6.51232,3.548214 -3.53392,1.715119 7.45722,-4.589634 3.14035,-1.724703 1.55508,-0.63993 -2.17792,1.339585 -4.23867,2.838929 -6.19279,4.485139 -1.72163,1.498118 -3.34684,3.102275 -4.96071,4.71453 -1.65641,1.685599 -0.80081,0.800928 -5.62727,2.486887 -0.16886,0.05899 0.25609,-0.249795 0.38354,-0.375293 0.81301,-0.800536 0.30017,-0.319259 1.28285,-1.198791 2.05204,-1.758597 4.10669,-3.508148 6.29342,-5.097795 2.53698,-1.895615 5.07951,-3.783762 7.63008,-5.661075 3.57475,-2.576126 7.51881,-4.564729 11.37327,-6.678783 -1.27114,0.725171 -5.07501,2.917176 -3.81342,2.175513 1.99273,-1.171482 3.99955,-2.318888 6.00695,-3.465042 0.76343,-0.435894 3.08761,-1.681549 2.32982,-1.235916 -4.17518,2.368407 -5.08968,2.926518 -2.80919,1.561635 3.346,-1.77032 6.46784,-5.7088761 10.4725,-4.8948506 1.93681,0.8482386 3.62726,2.1578066 5.3202,3.4050396 2.10271,1.544788 4.16857,3.141838 6.33413,4.598486 2.49609,1.651887 5.10284,3.112645 7.71474,4.569586 2.09878,1.328224 4.26408,2.460575 6.59124,3.317603 2.32727,0.922694 4.63521,1.890722 6.97154,2.792228 1.86471,0.67594 3.52083,1.769934 5.3142,2.59158 1.53379,0.815237 3.16652,1.478325 4.92247,1.436293 -0.67621,0.906359 3.50716,-1.67631 2.39777,-1.075169 -6.72094,3.641841 -4.40512,2.621184 -2.42618,0.906776 1.62088,-1.572874 3.26778,-3.10412 4.99647,-4.557915 2.59277,-1.934578 5.89277,-5.685958 9.22853,-4.084103 0.31483,0.151184 0.58561,0.380729 0.87842,0.571094 1.84273,1.211932 3.34487,2.840445 5.0231,4.252561 0.39818,0.216642 0.99107,0.636085 1.50754,0.594224 0.22156,-0.01796 0.80662,-0.371265 0.61376,-0.260745 -7.66414,4.392 -4.50959,2.692028 -2.84902,1.148216 1.64699,-1.753154 3.00995,-3.736371 4.41706,-5.678903 4.16639,-4.633875 6.39567,-5.016747 11.02985,-3.29272 2.63579,1.382852 5.03147,3.183568 7.44664,4.913896 2.01436,1.38576 3.76625,3.264625 6.07362,4.159844 0.91922,0.164271 1.71519,-0.102503 2.5389,-0.498588 0.32489,-0.156225 1.26156,-0.698406 0.94796,-0.520603 -4.44628,2.520887 -5.18115,3.092717 -3.01092,1.55282 1.83503,-1.475812 3.53041,-3.102724 5.4073,-4.528409 1.85282,-1.390659 3.65355,-2.824111 5.63973,-4.021279 3.20506,-1.959774 6.32543,-4.110868 10.11694,-4.404451 2.03585,0.09805 3.53738,1.469793 5.11136,2.597032 1.72318,1.088929 2.97909,2.862331 4.95833,3.478845 -0.65113,0.88068 2.58475,-0.976496 2.11685,-0.73124 -6.61047,3.464971 -4.99348,3.040212 -3.17401,1.254729 1.73512,-1.504835 5.44282,-5.03739 7.7449,-3.513449 0.4423,0.292791 0.81652,0.815952 1.14262,1.215336 0.15601,0.255425 0.28949,0.526052 0.46802,0.766276 0.12315,0.165708 0.48762,0.604054 0.79414,0.583006 0.12748,-0.0088 0.44855,-0.245049 0.3357,-0.185095 -4.82111,2.561432 -5.75129,3.801435 -4.1709,1.925072 1.1542,-1.671682 2.25951,-3.396391 3.86632,-4.66655 5.74141,-3.191314 6.44149,-4.802638 10.10322,-0.110907 1.76111,2.214938 3.68916,4.283742 5.45965,6.490432 0.24553,0.231545 0.47071,0.48677 0.73659,0.694635 0.24,0.187643 0.71988,0.524598 1.09427,0.399385 0.13004,-0.04349 0.41786,-0.348833 0.29637,-0.285257 -4.58031,2.396945 -5.69241,3.93051 -4.22756,2.072076 0.67824,-1.444662 0.8565,-3.058534 1.33232,-4.578743 1.2168,-3.906183 4.02369,-4.345468 7.79805,-6.524051 1.68918,-0.750385 3.38079,-0.654667 5.1372,-0.248037 1.94725,0.631811 3.78207,1.479446 5.60431,2.397848 2.25142,1.110803 4.38765,2.43999 6.49345,3.802455 2.2851,1.587699 4.64891,3.066399 6.80943,4.824509 1.68596,1.544965 3.34593,3.124972 5.18401,4.49086 1.51232,1.148584 2.89962,2.453389 4.34464,3.68889 0.79817,0.65531 1.53066,1.36965 2.23432,2.123185 0,0 -4.93953,3.006323 -4.93953,3.006323 l 0,0 c -0.69527,-0.733044 -1.41998,-1.427243 -2.20337,-2.067602 -1.43997,-1.223866 -2.81006,-2.531247 -4.3235,-3.661773 -1.82075,-1.396374 -3.48975,-2.968146 -5.17998,-4.516382 -2.15406,-1.734065 -4.50519,-3.196408 -6.77442,-4.772587 -2.10044,-1.344658 -4.23178,-2.652022 -6.47843,-3.740975 -1.77869,-0.903413 -3.59695,-1.709247 -5.51745,-2.270278 -1.71146,-0.301214 -3.33504,-0.271143 -4.90287,0.578381 1.42219,-0.836187 2.83714,-1.68482 4.26657,-2.508561 0.21681,-0.124939 -0.42147,0.270011 -0.62777,0.411627 -0.9121,0.62611 -1.42001,1.443455 -1.68526,2.524957 -0.54375,1.541924 -0.7409,3.156939 -1.26204,4.701002 -1.02149,2.005986 -4.54481,4.840379 -6.72339,3.653408 -0.63072,-0.343642 -0.92233,-0.720097 -1.43946,-1.234494 -1.76589,-2.211272 -3.68638,-4.287823 -5.45674,-6.496029 -0.68765,-0.857014 -1.36005,-1.81495 -2.41691,-2.256238 -0.94526,-0.394692 -1.6523,-0.04215 -1.53556,-0.128006 1.31981,-0.970608 2.78921,-1.719372 4.18381,-2.579057 -1.73883,1.05598 -2.81086,2.826407 -3.93002,4.484017 -2.06693,3.270622 -5.83367,5.720942 -7.71301,2.194689 -0.41055,-0.478549 -0.81865,-1.096005 -1.54466,-1.049039 -0.22717,0.0147 -0.84779,0.309874 -0.65736,0.185142 6.18848,-4.053473 5.28168,-3.369681 3.63155,-2.034947 -2.14242,2.155185 -3.09216,2.432217 -6.68605,4.597588 -0.76291,0.45966 -1.55344,0.516372 -2.40847,0.328357 -1.93903,-0.817586 -3.29813,-2.461626 -5.03816,-3.613467 -1.48446,-1.072933 -2.9319,-2.340813 -4.88028,-2.244479 -2.58106,0.346003 -8.41765,3.333961 -0.0738,-1.128423 -1.99636,1.184233 -3.84646,2.528433 -5.66747,3.970344 -1.91151,1.385851 -3.62272,2.98977 -5.40653,4.530982 -2.66776,2.030287 -1.17577,0.954916 -6.86703,4.186997 -1.18115,0.670779 -2.46238,1.007395 -3.78905,0.616192 -2.27416,-1.055349 -4.09112,-2.836177 -6.11899,-4.280082 -2.37749,-1.699569 -4.73156,-3.496141 -7.37105,-4.770972 -1.01412,-0.344088 -2.15226,-0.800973 -3.25077,-0.740563 -0.31704,0.01743 -1.18801,0.38855 -0.9308,0.202376 6.72508,-4.867799 4.65081,-3.023894 3.23513,-1.692526 -1.43009,1.944184 -2.78223,3.944313 -4.3723,5.766682 -2.44428,2.472457 -6.21522,6.230498 -9.51992,3.781549 -1.6401,-1.41051 -3.14116,-2.999785 -4.97691,-4.168334 -0.66705,-0.360515 -0.81244,-0.544791 -1.57611,-0.568497 -0.26178,-0.0081 -0.99192,0.247877 -0.78012,0.0938 7.70835,-5.607754 4.11181,-2.456561 2.46302,-1.32038 -1.72864,1.452767 -3.42889,2.92147 -5.00321,4.544533 -2.8453,2.576565 -6.20402,5.074731 -10.01754,5.737744 -1.80255,-0.139445 -3.46704,-0.782102 -5.05406,-1.635174 -1.76354,-0.853733 -3.43553,-1.889777 -5.286,-2.563212 -2.32442,-0.919762 -4.62892,-1.887697 -6.96014,-2.788389 -2.34256,-0.879327 -4.50176,-2.08525 -6.63182,-3.396685 -2.62308,-1.465772 -5.23019,-2.955522 -7.7401,-4.610978 -2.16912,-1.467229 -4.24699,-3.063279 -6.35786,-4.61219 -1.61586,-1.19358 -3.26,-2.491706 -5.17441,-3.15405 -2.39616,-0.14127 -4.00089,1.703385 2.50034,-2.323048 2.34027,-1.4494107 -5.25802,3.049599 -2.85472,1.800819 -2.53823,1.502604 -3.58364,2.124993 -7.07209,4.124835 -0.39496,0.226423 -0.80592,0.423767 -1.20642,0.640258 -0.37367,0.201992 -1.48157,0.831475 -1.11601,0.615153 0.72937,-0.431603 13.2346,-7.663485 -2.19839,1.277288 -1.76451,0.946903 -6.19504,3.500273 1.60925,-1.068869 0.32987,-0.193128 -0.66664,0.374834 -0.99038,0.578066 -0.72755,0.456721 -1.4115,0.98065 -2.14558,1.42752 -2.55157,1.884333 -5.11501,3.753018 -7.63852,5.674606 -2.20554,1.53813 -4.23593,3.290797 -6.28053,5.034435 -0.31649,0.263659 -1.2944,1.360408 -1.64599,1.524988 -6.62286,3.100196 -6.87933,3.726193 -5.10068,1.950188 1.62794,-1.612858 3.24577,-3.23835 4.95921,-4.761484 1.93695,-1.675527 3.96907,-3.231014 6.17306,-4.544432 3.7744,-2.565335 7.7195,-4.850085 11.85463,-6.785017 2.16205,-1.054321 4.35652,-2.036877 6.54563,-3.033083 -1.30515,1.127038 -2.58991,2.278139 -3.91545,3.381115 -0.34527,0.287289 -0.80126,0.406214 -1.2048,0.603435 -1.13885,0.556587 -2.27304,1.121248 -3.39508,1.711435 8.7309,-5.083252 -0.30641,0.09734 -1.9624,1.42331 -2.022,1.429349 -4.00559,2.919614 -5.84986,4.574314 -2.13147,1.881412 -4.04726,3.991837 -6.12915,5.927966 -1.7778,1.685467 -3.54769,3.406308 -5.6237,4.728614 -1.45497,0.892642 -9.10141,6.516832 -7.23555,2.015945 1.27567,-1.721854 2.47375,-3.500659 3.96287,-5.053882 1.80624,-1.738559 3.63997,-3.457076 5.65908,-4.950068 2.12512,-1.5401 4.31868,-2.95686 6.5878,-4.276017 3.98382,-2.307127 7.88683,-4.771923 12.11157,-6.624871 1.26794,-0.583221 1.07379,-0.477106 2.3212,-1.118782 0.3523,-0.181229 1.391,-0.758167 1.05201,-0.55311 -7.77273,4.701748 -3.57608,2.006647 -1.82773,1.055885 2.61478,-1.648163 5.32956,-3.16395 8.00639,-4.69469 1.37027,-0.783585 -2.72961,1.586128 -4.09373,2.380357 -0.23842,0.138815 0.47774,-0.276073 0.71661,-0.41411 1.87206,-1.092936 3.74412,-2.185871 5.61618,-3.278806 2.14533,-1.006483 1.1901,-0.619232 -3.49469,3.120838 -0.49744,0.397127 -1.44151,0.65252 -2.00405,0.905905 -0.31904,0.143707 -0.63697,0.289877 -0.95545,0.434815 -1.99326,0.864941 -3.97205,1.771132 -5.88957,2.793678 -0.32488,0.170049 -0.6514,0.336997 -0.97463,0.510149 -0.33216,0.177932 -0.66024,0.363389 -0.99146,0.543056 -4.0346,2.188504 6.0838,-3.658224 2.20489,-1.280077 -0.31081,0.190556 -0.62681,0.3725 -0.94022,0.55875 -0.32415,0.213142 -0.63846,0.442067 -0.97245,0.639426 -19.52714,11.538717 11.58328,-7.007447 -8.13472,4.742879 -0.30068,0.179184 14.72476,-8.521187 -2.19071,1.271613 8.75711,-5.090973 0.13459,-0.155756 -1.50678,1.335071 -2.3009,1.96108 -4.58174,3.964228 -6.5932,6.226939 -1.53625,1.946571 -3.02501,3.919347 -4.2943,6.056686 -1.22176,1.689994 -2.38942,3.465427 -3.92927,4.885672 -1.8824,1.128579 -3.74466,2.291449 -5.64721,3.385735 -1.41624,0.814581 -2.94871,0.138414 -4.10122,-0.789525 -1.59055,-1.376705 -3.04547,-2.903858 -4.67125,-4.242386 -1.56478,-1.306138 -3.11717,-2.626515 -4.58467,-4.042267 -1.87421,-1.730884 -3.80626,-3.407227 -5.95615,-4.792897 -2.02775,-1.307737 -4.03702,-2.649756 -6.13619,-3.840864 -2.25677,-1.325808 -4.63963,-2.419478 -6.91936,-3.70594 -2.59595,-1.41247 -5.23942,-2.741901 -7.92377,-3.978419 -2.25564,-1.129582 -4.45546,-2.37081 -6.62011,-3.665032 -1.89694,-1.100256 -3.79628,-2.210426 -5.81425,-3.077914 -1.98579,-0.907648 -4.02803,-1.777598 -6.18399,-2.177862 -1.71745,-0.155455 -3.39112,0.02722 -5.0546,0.502251 -1.88622,0.485051 -3.81261,0.824093 -5.63099,1.546801 -2.4714,0.837994 -4.99574,1.534591 -7.38053,2.611417 -2.63,1.104184 -5.19686,2.365299 -7.89439,3.301813 0,0 4.58148,-3.559328 4.58148,-3.559328 z"
       inkscape:connector-curvature="0" />
  </g>
</svg>
